<svg width="15" height="16" fill="none" xmlns="http://www.w3.org/2000/svg"><path d="M14.339 11.98c0-.018-.016-.018-.016-.036a.018.018 0 00-.018-.017 1.258 1.258 0 00-.274-.44l-.016-.019-.052-.052a2.007 2.007 0 00-.579-.405.859.859 0 00-.239-.088 1.806 1.806 0 00-.307-.036 2.052 2.052 0 00-.34.018h-.034a.097.097 0 00-.069.018c-.434.09-.822.334-1.09.687l-.035.036a5.58 5.58 0 01-.82.705c-.282.176-.579.33-.886.458h-.016a6.335 6.335 0 01-.836.265 4.881 4.881 0 01-2.32-.054c-.068-.018-.154-.053-.222-.07-.069-.018-.135-.053-.203-.07a1.08 1.08 0 01-.137-.055 1.576 1.576 0 01-.27-.127.018.018 0 01-.005-.013 5.354 5.354 0 01-1.618-1.233 4.88 4.88 0 01-.989-1.782 5.933 5.933 0 01-.18-2.606s.597-4.135 5.083-4.23a5.151 5.151 0 012.797.968c-2.585 2.67-5.974 6.116-5.974 6.116a3.662 3.662 0 002.03 1.692c.487-.494 7.635-7.834 7.635-7.834s-.676-1.225-1.638-1.93A7.526 7.526 0 008.746.066C4.892-.445.953 2.057.101 6.675c-.666 4.337 2.045 8.45 6.326 9.217 2.626.495 6.07-.704 7.98-3.735a.692.692 0 01-.068-.177z" fill="#00747B"/></svg>