<svg data-name="Layer 1" xmlns="http://www.w3.org/2000/svg" width="1440" height="600"><path fill="#fff" opacity=".7" style="isolation:isolate" d="M0 416h60v60H0z"/><path d="M622.06 355.48V354h-1.51v-.87l1.82-1.8 2.39 2.36-1.82 1.8zm7.77-10.68l-5.5 5.44a.33.33 0 01-.46.06l-.06-.06a.32.32 0 01-.06-.45l.06-.06 5.5-5.44a.33.33 0 01.46-.06l.06.06a.32.32 0 01.06.45zm1 8.27a.47.47 0 00-.55.11l-1 1a.48.48 0 00-.14.34v2a2.51 2.51 0 01-2.51 2.49h-13.11a2.51 2.51 0 01-2.51-2.49v-13a2.51 2.51 0 012.51-2.49h13.06a2.82 2.82 0 01.71.09.45.45 0 00.5-.12l.77-.76a.48.48 0 00.14-.45.45.45 0 00-.28-.36 4.35 4.35 0 00-1.84-.39h-13.06a4.37 4.37 0 00-3.2 1.31 4.27 4.27 0 00-1.32 3.16v12.93a4.28 4.28 0 001.33 3.16 4.37 4.37 0 003.2 1.31h13.06a4.37 4.37 0 003.2-1.31 4.28 4.28 0 001.33-3.16v-3a.45.45 0 00-.33-.39zm-11.83-.58V357h4.52l10.55-10.45-4.47-4.55zm18-9.49a1.42 1.42 0 00-.44-1.06l-2.39-2.36a1.53 1.53 0 00-2.14 0L630.6 341l4.52 4.48 1.44-1.43A1.38 1.38 0 00637 343zm19-6a13 13 0 11-13 13 13 13 0 0113-13zm-2 7v12l-5-6zm9 6l-5-6v12z" fill="#fff"/><path d="M322.55 270.31a3 3 0 00.42-2.06 3.53 3.53 0 00-.91-2.06 2.37 2.37 0 00-1.71-.87 1.63 1.63 0 00-1.48.8 2.86 2.86 0 00-.37 2 4 4 0 00.94 2.09 2.35 2.35 0 001.69.91 1.55 1.55 0 001.42-.81zm-.37 4.12a4.25 4.25 0 00-1.22-.19 4.07 4.07 0 00-2.41.75 2.13 2.13 0 00-1.05 1.73 2.34 2.34 0 00.89 1.83 3.38 3.38 0 002.25.75c2.35 0 3.53-.83 3.52-2.48a1.54 1.54 0 00-.09-.52.63.63 0 00-.07-.3 1.61 1.61 0 00-.21-.3 2.85 2.85 0 00-.23-.26 3.11 3.11 0 00-.28-.23L323 275l-.4-.28a2.57 2.57 0 01-.41-.26zm10.82-3.88h-3v3h-1.5v-3h-3V269h3v-3h1.5v3h3zm-12.33 9.52a7.27 7.27 0 01-3.49-.77 2.29 2.29 0 01-1.43-2 3 3 0 011.38-2.37 5.28 5.28 0 013.3-1.05h.84a1.93 1.93 0 01-.66-1.36 2.14 2.14 0 01.23-.89 1.48 1.48 0 01-.42 0 3.63 3.63 0 01-2.62-1 3.35 3.35 0 01-1-2.46 3.15 3.15 0 011.27-2.46 4.4 4.4 0 012.91-1h4.78l-1.08.75h-1.5a2.21 2.21 0 011.13 1 3.52 3.52 0 01.42 1.71 3 3 0 01-1.36 2.48 4.32 4.32 0 00-.75.73 1.17 1.17 0 00-.19.68 2.43 2.43 0 001.27 1.45 4.43 4.43 0 011.31 1.38 3.7 3.7 0 01.38 1.76 3 3 0 01-1.27 2.39 5.27 5.27 0 01-3.45 1zm11.81-16.55A12 12 0 10336 272a11.57 11.57 0 00-3.52-8.48z" fill="#da5542" opacity=".75" style="isolation:isolate"/><path d="M341.88 277a2.56 2.56 0 102.57 2.55 2.53 2.53 0 00-.75-1.8 2.5 2.5 0 00-1.82-.75zm8.35.12a12.17 12.17 0 00-5.9-5.9 11.92 11.92 0 00-4.1-1.08h-.07a.88.88 0 00-.86.86v1.81a.84.84 0 00.77.85 8.57 8.57 0 017.71 7.71.79.79 0 00.27.56.89.89 0 00.58.22h1.81a.86.86 0 00.86-.88 12 12 0 00-1.07-4.12zm6.33-2.59a19.26 19.26 0 00-9.64-9.64 18.6 18.6 0 00-6.72-1.61.88.88 0 00-.86.86V266a.83.83 0 00.23.58.82.82 0 00.57.26 15.38 15.38 0 0113.07 9 15 15 0 011.35 5.47.82.82 0 00.26.57.84.84 0 00.6.23h1.92a.87.87 0 00.86-.88 18.48 18.48 0 00-1.64-6.69z" fill="#999"/><path d="M276.92 138.87a1.14 1.14 0 11.81-.33 1.08 1.08 0 01-.81.33zm4.2-.09a.25.25 0 01-.2.09h-1.14a.3.3 0 01-.2-.08.28.28 0 01-.09-.19 3.72 3.72 0 00-3.44-3.44.28.28 0 01-.19-.09.3.3 0 01-.08-.2v-1.14a.27.27 0 01.09-.21.24.24 0 01.21-.08 5.4 5.4 0 015.12 5.12.27.27 0 01-.08.22zm3.43 0a.27.27 0 01-.21.09h-1.14a.3.3 0 01-.2-.08.25.25 0 01-.09-.2 6.93 6.93 0 00-1-3.37 7.24 7.24 0 00-2.49-2.49 6.93 6.93 0 00-3.37-1 .25.25 0 01-.2-.09.3.3 0 01-.08-.2v-1.13a.27.27 0 01.09-.21.24.24 0 01.21-.08 8.94 8.94 0 012.66.5 8.5 8.5 0 012.32 1.24 9.33 9.33 0 011.83 1.83 8.5 8.5 0 011.24 2.32 8.94 8.94 0 01.5 2.66.22.22 0 01-.08.2zm1.91-10.58a2.5 2.5 0 00-1.82-.75h-8.57a2.58 2.58 0 00-2.57 2.55v8.57a2.58 2.58 0 002.57 2.57h8.57a2.57 2.57 0 002.57-2.57V130a2.49 2.49 0 00-.76-1.82z" fill="#e19126"/><path d="M654.06 209.33a.43.43 0 01-.32.12H650a.43.43 0 01-.31-.12.41.41 0 01-.12-.32v-.87a.42.42 0 01.4-.44h.67l-.71-2.22h-3.77l-.37 1.12-1.36-2.72 2.22-6.38a.34.34 0 01.15-.22.5.5 0 01.26-.08h2a.5.5 0 01.26.08.34.34 0 01.15.22l3.53 10.2h.74a.42.42 0 01.44.4v.9a.41.41 0 01-.12.33zm-5.78-9.06a4.2 4.2 0 01-.22-.93c-.06.31-.13.62-.22.93l-1.15 3.39h2.71zm-14 7.19a.54.54 0 01.56.52v1.17a.54.54 0 01-.52.56h-4.82a.54.54 0 01-.56-.52V208a.54.54 0 01.52-.56h1l4.55-13.1a.4.4 0 01.19-.28.64.64 0 01.33-.1h2.53a.56.56 0 01.33.1.4.4 0 01.19.28l4.57 13.11h1a.54.54 0 01.56.52v1.17a.54.54 0 01-.52.56h-4.82a.54.54 0 01-.56-.52V208a.54.54 0 01.52-.56h.85l-.92-2.85h-4.85l-1 2.85zm2.25-9.56l-1.48 4.36h3.48l-1.44-4.36a5.51 5.51 0 01-.28-1.2 9.78 9.78 0 01-.28 1.19z" fill="#999"/><path d="M679.06 209.33a.43.43 0 01-.31.12H675a.43.43 0 01-.31-.12.41.41 0 01-.12-.32v-.87a.42.42 0 01.4-.44h.67l-.71-2.22h-3.77l-.37 1.12-1.36-2.72 2.22-6.38a.34.34 0 01.15-.22.5.5 0 01.26-.08h2a.5.5 0 01.26.08.34.34 0 01.15.22l3.53 10.2h.74a.42.42 0 01.44.4v.9a.41.41 0 01-.12.33zm-5.78-9.06a4.2 4.2 0 01-.22-.93c-.06.31-.13.62-.22.93l-1.15 3.39h2.71zm-14 7.19a.54.54 0 01.56.52v1.17a.54.54 0 01-.52.56h-4.82a.54.54 0 01-.56-.52V208a.54.54 0 01.52-.56h1l4.55-13.1a.4.4 0 01.19-.28.64.64 0 01.33-.1h2.53a.64.64 0 01.33.1.4.4 0 01.19.28l4.57 13.11h1a.54.54 0 01.56.52v1.17a.54.54 0 01-.52.56h-4.82a.54.54 0 01-.56-.52V208a.54.54 0 01.52-.56h.85l-.91-2.85h-4.85l-1 2.85zm2.25-9.56l-1.48 4.36h3.48l-1.44-4.36a5.29 5.29 0 01-.28-1.19 11.9 11.9 0 01-.28 1.18z" fill="#9f224e"/><path d="M718 204.4a.56.56 0 01-.56.56h-3.23v3.23a.56.56 0 01-.56.56h-1.78a.56.56 0 01-.56-.56V205H708a.56.56 0 01-.56-.56v-1.78a.56.56 0 01.56-.56h3.24v-3.23a.56.56 0 01.56-.56h1.78a.56.56 0 01.56.56V202h3.23a.56.56 0 01.56.56v1.78zm-13.85 5a.43.43 0 01-.32.12h-3.72a.43.43 0 01-.31-.12.41.41 0 01-.12-.32v-.87a.42.42 0 01.4-.44h.67l-.71-2.22h-3.77l-.37 1.11-1.36-2.72 2.22-6.38a.34.34 0 01.15-.22.5.5 0 01.26-.08h2a.5.5 0 01.26.08.34.34 0 01.15.22l3.56 10.2h.74a.42.42 0 01.44.4v.92a.42.42 0 01-.2.3zm-5.78-9.07a4.2 4.2 0 01-.22-.93c-.06.31-.13.62-.22.93l-1.15 3.39h2.71zm-14 7.19a.54.54 0 01.56.52v1.17a.54.54 0 01-.52.56h-4.82a.54.54 0 01-.56-.52v-1.16a.54.54 0 01.52-.56h1l4.57-13.11a.4.4 0 01.19-.28.57.57 0 01.33-.11h2.53a.57.57 0 01.33.11.4.4 0 01.19.28l4.57 13.11h1a.54.54 0 01.56.52v1.17a.54.54 0 01-.52.56h-4.9a.54.54 0 01-.56-.52v-1.16a.54.54 0 01.52-.56h.85l-.92-2.85h-4.85l-1 2.85zm2.25-9.56l-1.48 4.36h3.48l-1.44-4.32a5.29 5.29 0 01-.28-1.19 9.15 9.15 0 01-.31 1.17z" fill="#999"/><path d="M757 204.4a.56.56 0 01-.56.56h-3.23v3.23a.56.56 0 01-.56.56h-1.78a.56.56 0 01-.56-.56V205H747a.56.56 0 01-.56-.56v-1.78a.56.56 0 01.56-.56h3.24v-3.23a.56.56 0 01.56-.56h1.78a.56.56 0 01.56.56V202h3.23a.56.56 0 01.56.56v1.78zm-13.85 5a.43.43 0 01-.32.12h-3.72a.43.43 0 01-.31-.12.41.41 0 01-.12-.32v-.87a.42.42 0 01.4-.44h.67l-.71-2.22h-3.77l-.37 1.11-1.36-2.72 2.22-6.38a.34.34 0 01.15-.22.5.5 0 01.26-.08h2a.5.5 0 01.26.08.34.34 0 01.15.22l3.56 10.2h.74a.42.42 0 01.44.4v.92a.42.42 0 01-.2.3zm-5.78-9.07a4.2 4.2 0 01-.22-.93c-.06.31-.13.62-.22.93l-1.15 3.39h2.71zm-14 7.19a.54.54 0 01.56.52v1.17a.54.54 0 01-.52.56h-4.82a.54.54 0 01-.56-.52v-1.16a.54.54 0 01.52-.56h1l4.57-13.11a.4.4 0 01.19-.28.57.57 0 01.33-.11h2.53a.57.57 0 01.33.11.4.4 0 01.19.28l4.57 13.11h1a.54.54 0 01.56.52v1.17a.54.54 0 01-.52.56h-4.9a.54.54 0 01-.56-.52v-1.16a.54.54 0 01.52-.56h.85l-.92-2.85h-4.85l-1 2.85zm2.25-9.56l-1.48 4.36h3.48l-1.44-4.32a5.29 5.29 0 01-.28-1.19 9.15 9.15 0 01-.31 1.17z" fill="#9f224e"/><path d="M795.5 204.14a.56.56 0 01-.56.56h-3.24v3.23a.56.56 0 01-.56.56h-1.78a.56.56 0 01-.56-.56v-3.23h-3.24a.56.56 0 01-.56-.56v-1.78a.56.56 0 01.56-.56h3.24v-3.23a.56.56 0 01.56-.56h1.78a.56.56 0 01.56.56v3.23h3.23a.56.56 0 01.56.56v1.78zm14 0a.56.56 0 01-.56.56h-3.24v3.23a.56.56 0 01-.56.56h-1.78a.56.56 0 01-.56-.56v-3.23h-3.24a.56.56 0 01-.56-.56v-1.78a.56.56 0 01.56-.56h3.24v-3.23a.56.56 0 01.56-.56h1.78a.56.56 0 01.56.56v3.23h3.23a.56.56 0 01.56.56v1.78zm-27.38 5.24a.43.43 0 01-.32.12h-3.72a.43.43 0 01-.31-.12.41.41 0 01-.12-.32v-.87a.42.42 0 01.4-.44h.67l-.71-2.22h-3.77l-.37 1.11-1.36-2.72 2.22-6.38a.34.34 0 01.15-.22.5.5 0 01.26-.08h2a.5.5 0 01.26.08.34.34 0 01.15.22l3.55 10.2h.74a.42.42 0 01.44.4v.92a.4.4 0 01-.16.32zm-5.78-9.07a4.2 4.2 0 01-.22-.93c-.06.31-.13.62-.22.93l-1.15 3.39h2.71zm-14 7.19a.54.54 0 01.56.52v1.17a.54.54 0 01-.52.56h-4.82a.54.54 0 01-.56-.52v-1.16a.54.54 0 01.52-.56h1l4.57-13.11a.4.4 0 01.19-.28.57.57 0 01.33-.11h2.53a.57.57 0 01.33.11.4.4 0 01.19.28l4.57 13.11h.95a.54.54 0 01.56.52v1.17a.54.54 0 01-.52.56h-4.82a.54.54 0 01-.56-.52v-1.16a.54.54 0 01.52-.56h.85l-.91-2.85h-4.85l-1 2.85zm2.25-9.56l-1.48 4.36h3.48l-1.44-4.36a5.51 5.51 0 01-.28-1.2 9.52 9.52 0 01-.28 1.2z" fill="#999" opacity=".99" style="isolation:isolate"/><path d="M848.5 204.14a.56.56 0 01-.56.56h-3.24v3.23a.56.56 0 01-.56.56h-1.78a.56.56 0 01-.56-.56v-3.23h-3.24a.56.56 0 01-.56-.56v-1.78a.56.56 0 01.56-.56h3.24v-3.23a.56.56 0 01.56-.56h1.78a.56.56 0 01.56.56v3.23h3.23a.56.56 0 01.56.56v1.78zm14 0a.56.56 0 01-.56.56h-3.24v3.23a.56.56 0 01-.56.56h-1.78a.56.56 0 01-.56-.56v-3.23h-3.24a.56.56 0 01-.56-.56v-1.78a.56.56 0 01.56-.56h3.24v-3.23a.56.56 0 01.56-.56h1.78a.56.56 0 01.56.56v3.23h3.23a.56.56 0 01.56.56v1.78zm-27.38 5.24a.43.43 0 01-.32.12h-3.72a.43.43 0 01-.31-.12.41.41 0 01-.12-.32v-.87a.42.42 0 01.4-.44h.67l-.71-2.22h-3.77l-.37 1.11-1.36-2.72 2.22-6.38a.34.34 0 01.15-.22.5.5 0 01.26-.08h2a.5.5 0 01.26.08.34.34 0 01.15.22l3.55 10.2h.74a.42.42 0 01.44.4v.92a.4.4 0 01-.16.32zm-5.78-9.07a4.2 4.2 0 01-.22-.93c-.06.31-.13.62-.22.93l-1.15 3.39h2.71zm-14 7.19a.54.54 0 01.56.52v1.17a.54.54 0 01-.52.56h-4.82a.54.54 0 01-.56-.52v-1.16a.54.54 0 01.52-.56h1l4.57-13.11a.4.4 0 01.19-.28.57.57 0 01.33-.11h2.53a.57.57 0 01.33.11.4.4 0 01.19.28l4.57 13.11h.95a.54.54 0 01.56.52v1.17a.54.54 0 01-.52.56h-4.82a.54.54 0 01-.56-.52v-1.16a.54.54 0 01.52-.56h.85l-.91-2.85h-4.85l-1 2.85zm2.25-9.56l-1.48 4.36h3.48l-1.44-4.36a5.51 5.51 0 01-.28-1.2 9.52 9.52 0 01-.28 1.2z" fill="#9f224e" opacity=".99" style="isolation:isolate"/><path d="M87.09 272h-2v7.22h-2.64V272h-1.83v-2.48h1.83v-1.45a4.11 4.11 0 01.61-2.46 2.71 2.71 0 012.3-.82h2v2.48h-1.25a1 1 0 00-.82.23 1.38 1.38 0 00-.16.8v1.22h2.25zm5.39-8.48A12 12 0 1096 272a11.57 11.57 0 00-3.52-8.48z" fill="#3b589c" opacity=".75" style="isolation:isolate"/><path d="M138 269.33a1.21 1.21 0 010 .38 8.53 8.53 0 01-2.3 5.79 7.79 7.79 0 01-6.14 2.6 8.23 8.23 0 01-4.5-1.31 4.09 4.09 0 00.7 0 5.8 5.8 0 003.66-1.27 3 3 0 01-1.73-.61 2.79 2.79 0 01-1-1.45 2.62 2.62 0 00.56 0 3.57 3.57 0 00.8-.09 3.15 3.15 0 01-1.71-1 2.78 2.78 0 01-.68-1.87 2.61 2.61 0 001.36.38 2.77 2.77 0 01-1.36-2.44 2.83 2.83 0 01.42-1.5 8 8 0 006.09 3.09 2.74 2.74 0 01-.09-.7 3 3 0 013-3 2.79 2.79 0 012.16.94 5.28 5.28 0 001.88-.7 2.79 2.79 0 01-1.27 1.64 5.91 5.91 0 001.69-.47 6.64 6.64 0 01-1.54 1.59zm2.53-5.81A12 12 0 10144 272a11.56 11.56 0 00-3.51-8.48z" fill="#55acee" opacity=".75" style="isolation:isolate"/><path d="M36 260a12 12 0 1012 12 12 12 0 00-12-12zm4 6.86v11.73a.36.36 0 01-.3.41h-.11a.45.45 0 01-.33-.15l-3-3a.44.44 0 00-.29-.11.36.36 0 00-.26.11l-3.07 3.07a.38.38 0 01-.3.11.35.35 0 01-.41-.3.21.21 0 010-.11v-13a.51.51 0 01.42-.59h7.13a.51.51 0 01.56.45.33.33 0 010 .14v1.26zM12 260a12 12 0 1012 12 12 12 0 00-12-12zm6.44 14.87h-5.58l-4.68 4.23v-4.23h-2v-8.17h12.26v8.17z" fill="#ccc"/><path d="M60 260a12 12 0 1012 12 12 12 0 00-12-12zm4 6.86v11.73a.35.35 0 01-.3.41h-.11a.45.45 0 01-.33-.15l-3-3a.44.44 0 00-.29-.11.36.36 0 00-.26.11l-3.07 3.07a.38.38 0 01-.3.11.36.36 0 01-.41-.3.21.21 0 010-.11v-13a.51.51 0 01.42-.59h7.14a.51.51 0 01.56.45.33.33 0 010 .14v1.26z" fill="#004f8b"/><path d="M160.37 260a5.28 5.28 0 01-1.13 3.88 4.31 4.31 0 01-3.5 1.88h-.06a4.83 4.83 0 011.13-3.75 5 5 0 013.56-2.01zm.5 5.63a5.48 5.48 0 014.44 2.44 5 5 0 00-2.44 3.06 5.42 5.42 0 00.31 3.88 5 5 0 002.81 2.63 19.09 19.09 0 01-1.5 2.87q-2.25 3.5-4.07 3.5h-.06a4.44 4.44 0 01-1.78-.5 5.22 5.22 0 00-2.16-.5 5.15 5.15 0 00-2.22.5 4.44 4.44 0 01-1.78.5h-.06c-1.25 0-2.59-1.1-4-3.31a14.57 14.57 0 01-2.31-6.62 8.26 8.26 0 011-5.44 5.6 5.6 0 014.88-3 7.26 7.26 0 012.35.5 7.24 7.24 0 002.1.5 6.6 6.6 0 002-.5 7.34 7.34 0 012.49-.52z"/><path d="M185 268l-14.29-7.92a1.2 1.2 0 00-1.59.58 1.16 1.16 0 00-.11.52v9.43l11.21 8z" fill="#00f076"/><path d="M169.36 260.34l15.92 15.56-14.28 7.83a1.22 1.22 0 01-1.72-.16 1.22 1.22 0 01-.28-.77v-21.6a1.22 1.22 0 01.36-.86z" fill="#00d5ff"/><path d="M169.36 260.34L183 273.66 172 282a12.55 12.55 0 01-1.78 2 1.21 1.21 0 01-1.22-1.2v-21.6a1.22 1.22 0 01.36-.86z" fill="#00d5ff"/><path d="M184.17 276.51l6.06-3.32a1.21 1.21 0 00.06-2.23l-5.1-2.83-4.36 4.27z" fill="#ffd800"/><path d="M181.24 272l4 3.94-14.24 7.79a1.22 1.22 0 01-1.68-.1z" fill="#fc3944"/><path d="M238 276.61h-1.87l-1.87-1.87v-1.87l1.88-1.87H238zm-20-4.24a2.07 2.07 0 01.72-1.59 2.42 2.42 0 011.66-.65h10.49a2.42 2.42 0 011.66.65 2.07 2.07 0 01.72 1.59V277a2.12 2.12 0 01-.67 1.59 2.37 2.37 0 01-1.71.65h-10.49a2.42 2.42 0 01-1.66-.65A2.07 2.07 0 01218 277zm8.63-5.88a2.63 2.63 0 01.82-1.94 3 3 0 014.09 0 2.7 2.7 0 01.09 3.8l-.09.09a3 3 0 01-4.09 0 2.63 2.63 0 01-.82-1.94zm-7.64 0a2.6 2.6 0 01.83-1.94 3 3 0 014.1 0 2.7 2.7 0 01.09 3.8l-.09.09a3 3 0 01-4.1 0 2.6 2.6 0 01-.83-1.94zm42.49-.13H242.3a.37.37 0 00-.2.12.31.31 0 00-.11.2v13a.31.31 0 00.11.2.54.54 0 00.2.1h19.36a.54.54 0 00.2-.1.31.31 0 00.11-.2v-12.91a.67.67 0 000-.2.31.31 0 00-.11-.2.54.54 0 00-.2-.1h-.18v.09zM248.42 264h-3.84a.37.37 0 00-.2.07.29.29 0 01-.18.07.32.32 0 00-.12.18.67.67 0 000 .2v1.31h4.75v-1.7a.39.39 0 00-.19-.12h-.22zm3.58 14.7a5.46 5.46 0 01-1.07-.1 7.12 7.12 0 01-1-.29 4.25 4.25 0 01-.88-.5 7.47 7.47 0 01-.8-.69 7.28 7.28 0 01-.67-.8 3.86 3.86 0 01-.47-.9 5 5 0 01-.29-1 6.59 6.59 0 01-.09-1.09 4.79 4.79 0 01.11-1 3.59 3.59 0 01.39-1 5.14 5.14 0 01.47-.9l.55-.82a7.47 7.47 0 01.8-.69 3.76 3.76 0 01.88-.48 4.43 4.43 0 011-.3 7 7 0 012.14 0l1 .16a4.25 4.25 0 01.88.5 7.47 7.47 0 01.8.69 7.28 7.28 0 01.67.8 3.86 3.86 0 01.47.9 5 5 0 01.29 1 6.92 6.92 0 01.09 1.11 6.59 6.59 0 01-.09 1.09 5 5 0 01-.29 1 3.86 3.86 0 01-.47.9 7.28 7.28 0 01-.67.8 7.47 7.47 0 01-.8.69 4.25 4.25 0 01-.88.5 7.12 7.12 0 01-1 .29 5.46 5.46 0 01-1.07.1zm0-8.79a2.71 2.71 0 00-.69.08c-.21.05-.4.12-.59.18l-.56.41a1.72 1.72 0 00-.46.51 1.57 1.57 0 00-.49.47 2.55 2.55 0 00-.29.57 3.25 3.25 0 01-.16.61 3.36 3.36 0 00-.08.71 3 3 0 00.08.66c.05.25.11.46.16.66l.39.57a2.5 2.5 0 00.39.47 1.47 1.47 0 00.46.5 2.73 2.73 0 00.56.3l.59.16a2.72 2.72 0 001.33 0l.64-.16.56-.42a2 2 0 00.46-.5 1.86 1.86 0 00.49-.48 2.29 2.29 0 00.29-.56l.16-.61a2.74 2.74 0 00.08-.7 3 3 0 00-.08-.67c-.05-.24-.11-.45-.16-.65l-.39-.58a4.54 4.54 0 00-.39-.48 1.75 1.75 0 00-.46-.48 2.73 2.73 0 00-.56-.3 5.76 5.76 0 00-.59-.18 2.71 2.71 0 00-.69-.08zm32.09-3.56a.32.32 0 00.18.12h.5a.32.32 0 00.2-.12.35.35 0 00.12-.23v-2.62a.49.49 0 000-.17.11.11 0 00-.12-.08.14.14 0 01-.12-.06.14.14 0 00-.12-.06h-2.53a.48.48 0 00-.31.08l-.21.17a.36.36 0 00-.11.25v.23a.27.27 0 00.08.19l.16.2a.52.52 0 00.26.1h.77l-4.3 4.72-5.54-5.33a1.23 1.23 0 00-.37-.12h-.19a.31.31 0 00-.19.11l-5.94 5.34a1.14 1.14 0 00-.18.25.73.73 0 00-.08.25.59.59 0 00.07.29.48.48 0 01.07.2.9.9 0 00.26.17.68.68 0 00.24.08.61.61 0 00.26-.08.9.9 0 00.26-.17l5.43-5 5.68 5.48a.48.48 0 01.14.25h.24l.13-.12h.17a.68.68 0 01.26-.12l4.68-5.23v.51a.51.51 0 00.08.29.81.81 0 00.18.19zm-16 14.44l.13-.13.13-.13v-7a.29.29 0 000-.13l-.12-.13-.13-.12h-1.64l-.13.12a.69.69 0 00-.11.13.29.29 0 000 .13v7a.29.29 0 000 .13 1.36 1.36 0 00.24.24H268v-.12zm3.09-.13a.12.12 0 00.07-.13v-9.08a.29.29 0 000-.13l-.12-.13a.32.32 0 00-.12-.11h-1.71a.69.69 0 00-.13.11l-.1.13a.29.29 0 000 .13v9.08a.29.29 0 000 .13l.1.13a.69.69 0 00.13.11h1.53a.14.14 0 00.12-.06.14.14 0 01.12-.06.12.12 0 01.07-.12zm2.85.13l.1-.13a.29.29 0 000-.13v-11.7a.24.24 0 000-.12l-.1-.12-.13-.12a.29.29 0 00-.13 0h-1.64l-.12.13a.29.29 0 000 .13v11.82a.29.29 0 000 .13l.12.13a.32.32 0 00.12.11h1.65a.69.69 0 00.13-.11zm3-.13l.12-.13v-8.82a.29.29 0 000-.13l-.12-.13-.13-.12h-1.64l-.13.12a.69.69 0 00-.11.13.29.29 0 000 .13v8.82a.29.29 0 000 .13 1.36 1.36 0 00.24.24h1.64a.69.69 0 00.13-.11.29.29 0 01-.03-.13zm3 0a.29.29 0 000-.13v-7a.29.29 0 000-.13l-.12-.13a.34.34 0 00-.12-.12h-1.65l-.13.12-.1.13a.29.29 0 000 .13v7a.29.29 0 000 .13l.1.13a.69.69 0 00.13.11h1.65a.32.32 0 00.12-.11zm2.94 0l.1-.13v-9.33a.32.32 0 00-.11-.12l-.13-.12h-1.64l-.13.12a.25.25 0 00-.11.12v9.33a.29.29 0 000 .13 1.36 1.36 0 00.24.24h1.64a.69.69 0 00.13-.11.29.29 0 010-.13zm3 0a.29.29 0 000-.13v-10.82a.29.29 0 000-.13l-.12-.13-.13-.1a.29.29 0 00-.13 0h-1.38a.53.53 0 00-.37.25.29.29 0 000 .13v10.83a.29.29 0 000 .13 1.36 1.36 0 00.24.24h1.64a.69.69 0 00.13-.11zm-87.06-13a.35.35 0 01-.32.11.44.44 0 01-.3-.15 4.21 4.21 0 01-.72-1.27 4.4 4.4 0 01-.25-1.44 4.06 4.06 0 011.18-2.91 3.89 3.89 0 015.5-.15l.15.15a4.08 4.08 0 011.17 2.94 4.44 4.44 0 01-.95 2.71.57.57 0 01-.16.11h-.34a.49.49 0 01-.3-.42.41.41 0 01.12-.33 3.46 3.46 0 00.54-1 3.24 3.24 0 00.19-1.11 3.15 3.15 0 00-.91-2.28 3 3 0 00-4.24-.13.8.8 0 00-.13.13 3.18 3.18 0 00-.9 2.28 3.49 3.49 0 00.18 1.11 3 3 0 00.55 1 .38.38 0 01.11.33.47.47 0 01-.17.33zm.28-2.76a2.2 2.2 0 01.62-1.58 2 2 0 011.52-.66 2 2 0 011.5.66 2.2 2.2 0 01.62 1.58 1.82 1.82 0 010 .33.51.51 0 01-.07.31 2.06 2.06 0 00-.75-1.12 2.19 2.19 0 00-2.6 0 2 2 0 00-.75 1.09 1.27 1.27 0 01-.06-.28 1.61 1.61 0 010-.31zm10.73 9.19a5.8 5.8 0 01-.19 2.65 13.79 13.79 0 01-1.65 3.33v.09l-.17 2.82a.18.18 0 01-.17.17h-6.63a.14.14 0 01-.09 0 .16.16 0 01-.06-.08l-4.72-9.41a1.17 1.17 0 010-1.38 1.36 1.36 0 011.1-.61 1.08 1.08 0 01.55.15 1.38 1.38 0 01.48.48l.6 1a.66.66 0 00.21.23.54.54 0 00.28.08.54.54 0 00.4-.17.63.63 0 00.14-.44v-6.7a1.16 1.16 0 01.4-1 1.27 1.27 0 011.71 0 1.18 1.18 0 01.39 1v3.81a.17.17 0 00.07.13.2.2 0 00.15 0h.06l.32-.09a1.72 1.72 0 011.18.16 1.69 1.69 0 01.71.74l.09.07h.16l.33-.1a1.78 1.78 0 011.18.11 1.75 1.75 0 01.7.65.49.49 0 00.18.2.43.43 0 00.25.07 2.87 2.87 0 011.13.39 2.17 2.17 0 01.91 1.68z" fill="#333"/><path d="M288 283.68v-.53a5.45 5.45 0 01.25-1.06 2.77 2.77 0 01.64-1.13 5 5 0 011.59-.86c.79-.31 1.69-.65 2.69-1a19.65 19.65 0 002.2-.86 3.12 3.12 0 001.36-1.26 3.34 3.34 0 00.49-1.74 2.34 2.34 0 00-.76-1.45 6.48 6.48 0 01-1.24-2.33 10.88 10.88 0 01-.48-3.4 7.31 7.31 0 01.42-2.58 4.74 4.74 0 011.15-1.81 5 5 0 011.66-1 5.85 5.85 0 014 0 5 5 0 011.66 1 4.62 4.62 0 011.16 1.81 7.31 7.31 0 01.42 2.58 11.17 11.17 0 01-.47 3.4 6.3 6.3 0 01-1.23 2.33 2.41 2.41 0 00-.77 1.45 3.3 3.3 0 00.49 1.73 3.23 3.23 0 001.37 1.27 19.65 19.65 0 002.2.86c1 .35 1.89.68 2.67 1a5.06 5.06 0 011.58.86 2.53 2.53 0 01.64 1.08 4.14 4.14 0 01.25 1.16v.47zM0 195h18v2H0zm0 5h18v2H0zm0 5h18v2H0zm18-10h18v2H18zm0 5h18v2H18zm0 5h18v2H18z" fill="#ccc"/><path d="M36 210v-.4a4.33 4.33 0 01.19-.79 2 2 0 01.48-.85 3.92 3.92 0 011.19-.64c.59-.23 1.26-.48 2-.74a14.48 14.48 0 001.65-.65 2.39 2.39 0 001-.94 2.57 2.57 0 00.36-1.3 1.76 1.76 0 00-.57-1.09 4.7 4.7 0 01-.93-1.75 8.51 8.51 0 01-.37-2.55 5.51 5.51 0 01.32-1.93 3.44 3.44 0 01.88-1.37 3.68 3.68 0 011.25-.77A4.08 4.08 0 0145 194a4 4 0 011.49.26 3.8 3.8 0 011.24.77 3.49 3.49 0 01.87 1.36 5.51 5.51 0 01.32 1.93 8.49 8.49 0 01-.35 2.55 4.7 4.7 0 01-.93 1.75 1.84 1.84 0 00-.57 1.09 2.48 2.48 0 00.37 1.3 2.41 2.41 0 001 1 14.48 14.48 0 001.65.65c.75.26 1.41.51 2 .74a3.76 3.76 0 011.18.64 2 2 0 01.48.81 3.22 3.22 0 01.19.87v.35z" fill="#333"/><path d="M611 210v-.4a4.33 4.33 0 01.19-.79 2 2 0 01.48-.85 3.92 3.92 0 011.19-.64c.59-.23 1.26-.48 2-.74a14.48 14.48 0 001.65-.65 2.3 2.3 0 001-1 2.57 2.57 0 00.36-1.3 1.76 1.76 0 00-.57-1.09 4.7 4.7 0 01-.93-1.75 8.5 8.5 0 01-.36-2.55 5.51 5.51 0 01.32-1.93 3.49 3.49 0 01.87-1.36 3.68 3.68 0 011.25-.77A4.08 4.08 0 01620 194a4 4 0 011.49.26 3.8 3.8 0 011.24.77 3.49 3.49 0 01.87 1.36 5.51 5.51 0 01.32 1.93 8.49 8.49 0 01-.35 2.55 4.7 4.7 0 01-.93 1.75 1.84 1.84 0 00-.57 1.09 2.48 2.48 0 00.37 1.3 2.3 2.3 0 001 1 14.48 14.48 0 001.65.65c.75.26 1.41.51 2 .74a3.76 3.76 0 011.18.64 2 2 0 01.48.81 3.22 3.22 0 01.19.87v.36z" fill="#ccc"/><path fill="#212121" d="M90.01 208.21l-1.8 1.8L81 202.8l-7.21 7.21-1.8-1.8L79.2 201l-7.21-7.21 1.8-1.8L81 199.2l7.21-7.21 1.8 1.8L82.8 201l7.21 7.21z"/><path fill="#004f8b" d="M107.99 193.82L100.8 201l7.19 7.18-1.81 1.81-7.19-7.18-7.19 7.18-1.81-1.81 7.18-7.18-7.19-7.18 1.82-1.81 7.19 7.18 7.19-7.18 1.81 1.81zM54 210v-.4a4.33 4.33 0 01.19-.79 2 2 0 01.48-.85 3.92 3.92 0 011.19-.64c.59-.23 1.26-.48 2-.74a14.48 14.48 0 001.65-.65 2.39 2.39 0 001-.94 2.57 2.57 0 00.36-1.3 1.76 1.76 0 00-.57-1.09 4.7 4.7 0 01-.93-1.75 8.51 8.51 0 01-.37-2.55 5.51 5.51 0 01.32-1.93 3.44 3.44 0 01.88-1.37 3.68 3.68 0 011.25-.77A4.08 4.08 0 0163 194a4 4 0 011.49.26 3.8 3.8 0 011.24.77 3.49 3.49 0 01.87 1.36 5.51 5.51 0 01.32 1.93 8.49 8.49 0 01-.35 2.55 4.7 4.7 0 01-.93 1.75 1.84 1.84 0 00-.57 1.09 2.48 2.48 0 00.37 1.3 2.41 2.41 0 001 1 14.48 14.48 0 001.65.65c.75.26 1.41.51 2 .74a3.76 3.76 0 011.18.64 2 2 0 01.48.81 3.22 3.22 0 01.19.87v.35z"/><path d="M143 191.93a1 1 0 01.71.29.9.9 0 01.32.68v16a.9.9 0 01-.32.68 1 1 0 01-.71.29h-4.59V203h2.34l.34-2.74h-2.68v-1.76a1.19 1.19 0 011-1.33h1.74v-2.4a11.36 11.36 0 00-2.1-.15 3.37 3.37 0 00-2.51 1 3.57 3.57 0 00-1 2.67v2h-2.34V203h2.35v7H127a1 1 0 01-1-1v-16a1 1 0 011-1z" fill="#3b589c"/><path d="M161.71 197.6v-1.43h-2.83v-2.85h-1.37v2.85h-2.88v1.43h2.88v2.85h1.37v-2.85zm-1-5.6a1.22 1.22 0 01.9.37 1.25 1.25 0 01.37.91v15.44a1.25 1.25 0 01-.37.91 1.22 1.22 0 01-.9.37h-7.07a4.33 4.33 0 00.15-1.13 4 4 0 00-.63-2.26 8.61 8.61 0 00-1.46-1.61l-.93-.74a5.12 5.12 0 01-.44-.49 1.22 1.22 0 01-.24-.69 1.49 1.49 0 01.24-.79l.44-.59.37-.3a5.58 5.58 0 00.46-.39 4.75 4.75 0 00.63-.79 4.19 4.19 0 00.63-2.36 6.32 6.32 0 00-.2-1.43 4.22 4.22 0 00-.49-1 5.6 5.6 0 00-.59-.79 4.31 4.31 0 00-.59-.44h1.66l1.71-1H149a14.07 14.07 0 00-2.34.25 5.87 5.87 0 00-2.39 1.23l-.12.15-.15.17v-1.72a1.2 1.2 0 01.39-.91 1.26 1.26 0 01.88-.37zm-11.57 14.31a15 15 0 012.24 1.82 2.66 2.66 0 01.68 1.82v.05h-6.83a1.26 1.26 0 01-.88-.37 1.2 1.2 0 01-.39-.91V208a5.75 5.75 0 01.44-.54 3.53 3.53 0 01.78-.49l.29-.12.29-.12 1.71-.34h1.65zm-.73-.79a17.45 17.45 0 00-2.39.25 8.8 8.8 0 00-2 .64v-4.87a4.07 4.07 0 003 1.13 6.46 6.46 0 00.88 0l-.15.44a2 2 0 00-.1.64 2 2 0 00.24 1 5.15 5.15 0 00.55.77zm-1.66-4.13a4.25 4.25 0 01-1.07-1.28 6.35 6.35 0 01-.83-3 3.62 3.62 0 01.59-2.07 2.27 2.27 0 011.8-.88 2.56 2.56 0 011.46.49 3.48 3.48 0 011 1.28 7.43 7.43 0 01.83 3.3 6.46 6.46 0 010 .88 2.09 2.09 0 01-2.24 1.87 2.34 2.34 0 01-1.51-.59z" fill="#da5542"/><path d="M177.36 194.64L180 192v7.89h-7.92l3.64-3.63a6.68 6.68 0 10-.79 10.22 6.41 6.41 0 002.43-3.23h2.32a8.65 8.65 0 01-3.17 4.84A8.74 8.74 0 01171 210a9 9 0 116.39-15.35zm20.66 5.25v2.21h-13.7l6.27 6.31-1.58 1.59-9.01-9 9.01-9 1.64 1.58-6.33 6.31h13.7z" fill="#333"/><path fill="#666" d="M164 68.13v1.72h-10.64l4.87 4.9-1.23 1.23-7-6.99 7-6.99 1.27 1.23-4.91 4.9H164z"/><path fill="#333" d="M197.99 199.89v2.21h13.7l-6.27 6.31L207 210l9.01-9-9.01-9-1.63 1.58 6.32 6.31h-13.7z"/><path fill="#333" d="M223.89 210.01h2.21v-13.7l6.31 6.27L234 201l-9-9.01-9 9.01 1.58 1.63 6.31-6.32v13.7zm18-18.02h2.21v13.7l6.31-6.27L252 201l-9 9.01-9-9.01 1.58-1.63 6.31 6.32v-13.7z"/><path d="M262.64 209.44a2.55 2.55 0 01-1.64.56 2.47 2.47 0 01-1.64-.59 2.08 2.08 0 01-.8-1.43h4.88a2.21 2.21 0 01-.8 1.46zm4.27-9.84a14.32 14.32 0 00.07 1.8c.07.53.09 1 .14 1.38a3.76 3.76 0 00.33 1.13 6.38 6.38 0 01.33.82 2 2 0 00.49.7l.47.51a8.14 8.14 0 00.63.54l.63.52h-18a5.17 5.17 0 01.51-.42 6.12 6.12 0 00.49-.4l.42-.42a2.79 2.79 0 00.42-.49l.35-.54a2.72 2.72 0 00.33-.66l.24-.8a5.69 5.69 0 00.19-1 8.08 8.08 0 01.09-1.2 6.11 6.11 0 000-1.48q0-5.67 4.78-6.47V193a1 1 0 01.33-.73 1.18 1.18 0 011.59 0 1 1 0 01.33.73v.09c3.23.49 4.85 2.66 4.84 6.5z" fill="#ccc"/><path d="M280.64 209.44a2.55 2.55 0 01-1.64.56 2.47 2.47 0 01-1.64-.59 2.08 2.08 0 01-.8-1.43h4.88a2.21 2.21 0 01-.8 1.46zm4.27-9.84a14.32 14.32 0 00.07 1.8c.07.53.09 1 .14 1.38a3.76 3.76 0 00.33 1.13 6.38 6.38 0 01.33.82 2 2 0 00.49.7l.47.51a8.14 8.14 0 00.63.54l.63.52h-18a5.3 5.3 0 01.52-.42 6.12 6.12 0 00.49-.4l.42-.42a2.79 2.79 0 00.42-.49l.35-.54a2.72 2.72 0 00.33-.66c.06-.2.14-.47.23-.8a5.69 5.69 0 00.19-1 8.08 8.08 0 01.09-1.2 6.11 6.11 0 000-1.48q0-5.67 4.78-6.47V193a1 1 0 01.33-.73 1.18 1.18 0 011.59 0 1 1 0 01.33.73v.09c3.23.49 4.85 2.66 4.84 6.5z" fill="#9f224e"/><path d="M304.21 192a1.81 1.81 0 011.77 1.77v10.83a1.79 1.79 0 01-.53 1.27 1.68 1.68 0 01-1.24.55h-10.8a1.88 1.88 0 01-1.81-1.82v-10.83a1.69 1.69 0 01.55-1.25 1.77 1.77 0 011.27-.53h10.79zm-7.68 6.76v-.93a1.37 1.37 0 00-1.35-1.35h-2.24v5.41h1.35v-1.78h.89a1.37 1.37 0 001.35-1.35zm4.51 1.77v-2.7a1.34 1.34 0 00-.38-1 1.29 1.29 0 00-1-.4h-2.24v5.41h2.24a1.29 1.29 0 001-.4 1.34 1.34 0 00.38-1zm3.59-2.7v-1.35h-2.7v5.41h1.35v-1.78h1.35v-1.36h-1.35v-.93h1.35zm-10.34.93v-.93h.89v.93zm-4.52-3.17v12.64h12.63V210h-12.62a1.81 1.81 0 01-1.77-1.77v-12.64zm9 4.94v-2.7h.89v2.7z" fill="#999"/><path d="M370.33 196.9a1.5 1.5 0 01.19-.88 1.24 1.24 0 011-.26H373V193h-2.33a3.33 3.33 0 00-2.72.91 4.33 4.33 0 00-.72 2.73v1.61H365V201h2.17v8h3.17v-8h2.33l.34-2.75h-2.67v-1.35z" fill="#3b5999"/><path d="M386.28 202.19a2.53 2.53 0 01-1.32-1.51 1.2 1.2 0 01.2-.71 4.62 4.62 0 01.78-.75 3.16 3.16 0 001.42-2.58 3.59 3.59 0 00-.44-1.78 2.3 2.3 0 00-1.17-1.09h1.57l1.13-.78h-5a4.64 4.64 0 00-3 1.1 3.25 3.25 0 00-1.32 2.55 3.42 3.42 0 001.08 2.55 3.75 3.75 0 002.74 1 1.62 1.62 0 00.44 0 2.18 2.18 0 00-.24.93 2 2 0 00.68 1.41H383a5.55 5.55 0 00-3.45 1.1 3.09 3.09 0 00-1.44 2.46 2.39 2.39 0 001.49 2.12 7.66 7.66 0 003.64.8 5.5 5.5 0 003.57-1.07 3.11 3.11 0 001.32-2.48 3.69 3.69 0 00-.39-1.82 4.81 4.81 0 00-1.46-1.45zm-2.67-2.46a2.4 2.4 0 01-1.76-.95 4.07 4.07 0 01-1-2.16 2.89 2.89 0 01.39-2.09 1.69 1.69 0 011.54-.83 2.44 2.44 0 011.79.9 3.68 3.68 0 011 2.14 3.1 3.1 0 01-.44 2.14 1.6 1.6 0 01-1.52.86zm-.51 8.49a3.51 3.51 0 01-2.35-.78 2.39 2.39 0 01-.93-1.9 2.2 2.2 0 011.1-1.8 4.29 4.29 0 012.52-.78 4.21 4.21 0 011.27.2 2.82 2.82 0 00.39.29l.42.29.32.24a2.17 2.17 0 01.29.24l.24.27a1.4 1.4 0 01.22.32.59.59 0 01.07.29 1.66 1.66 0 01.1.54q0 2.58-3.66 2.59zm9.78-13.82h-1.57v3.11h-3.13v1.6h3.13v3.07h1.57v-3.07H396v-1.6h-3.13z" fill="#dd4b39"/><path d="M412.53 195.26a6 6 0 01-2.08.78 3.07 3.07 0 00-2.4-1 3.29 3.29 0 00-3.28 3.28 2.94 2.94 0 00.11.78 9 9 0 01-6.77-3.43 3.13 3.13 0 00-.47 1.66 3.07 3.07 0 001.51 2.7 2.87 2.87 0 01-1.51-.42 3.12 3.12 0 00.76 2.08 3.44 3.44 0 001.9 1.14 3.8 3.8 0 01-.89.1 3.21 3.21 0 01-.62 0 3.11 3.11 0 001.15 1.61 3.37 3.37 0 001.93.68 6.51 6.51 0 01-4.06 1.4 6.81 6.81 0 01-.78-.05 9.24 9.24 0 005 1.47 8.66 8.66 0 006.83-2.89 9.46 9.46 0 002.55-6.42 2 2 0 00-.05-.42 6.83 6.83 0 001.67-1.72 6.49 6.49 0 01-1.88.52 3.1 3.1 0 001.38-1.85z" fill="#55acee"/><path d="M349.91 199.73a2.22 2.22 0 00.32-1.55 2.64 2.64 0 00-.68-1.55 1.78 1.78 0 00-1.28-.65 1.23 1.23 0 00-1.11.6 2.11 2.11 0 00-.28 1.51 2.93 2.93 0 00.7 1.56 1.73 1.73 0 001.27.69 1.17 1.17 0 001.06-.61zm-.28 3.09a3.09 3.09 0 00-.91-.14 3 3 0 00-1.81.56 1.59 1.59 0 00-.79 1.3 1.74 1.74 0 00.67 1.37 2.59 2.59 0 001.69.56q2.64 0 2.64-1.86a1.34 1.34 0 00-.07-.39.54.54 0 00-.05-.22 1.19 1.19 0 00-.16-.23l-.18-.19-.21-.18-.23-.18-.3-.21a1.75 1.75 0 01-.29-.18zm8.12-2.92h-2.25v2.21h-1.12v-2.21h-2.25v-1.16h2.25v-2.24h1.13v2.25h2.25zm-9.25 7.1a5.4 5.4 0 01-2.62-.58 1.75 1.75 0 01-1.07-1.53 2.22 2.22 0 011-1.77 4 4 0 012.48-.79h.71a1.42 1.42 0 01-.49-1 1.45 1.45 0 01.17-.67h-.32a2.7 2.7 0 01-2-.76 2.48 2.48 0 01-.77-1.85 2.32 2.32 0 011-1.85 3.29 3.29 0 012.18-.79h3.58l-.81.56h-1.12a1.58 1.58 0 01.84.79 2.7 2.7 0 01.32 1.28 2.27 2.27 0 01-1 1.86 3.58 3.58 0 00-.56.54.84.84 0 00-.14.51 1.83 1.83 0 00.95 1.09 3.4 3.4 0 011 1 2.73 2.73 0 01.28 1.32 2.27 2.27 0 01-.95 1.79 4 4 0 01-2.57.77zm8.86-12.41A9 9 0 10360 201a8.65 8.65 0 00-2.64-6.36z" fill="#da5542" opacity=".75" style="isolation:isolate"/><path d="M317.32 201h-1.48v5.41h-2V201h-1.37v-1.86h1.37V198a3 3 0 01.46-1.85 2 2 0 011.72-.62h1.48v1.86h-.92a.76.76 0 00-.61.18 1 1 0 00-.12.6v.91h1.69zm4-6.36A9 9 0 10324 201a8.65 8.65 0 00-2.64-6.36z" fill="#3b589c" opacity=".75" style="isolation:isolate"/><path d="M337.46 199a1.31 1.31 0 010 .28 6.42 6.42 0 01-1.72 4.34 5.84 5.84 0 01-4.61 2 6.18 6.18 0 01-3.37-1h.53a4.41 4.41 0 002.74-1 2.36 2.36 0 01-1.3-.46 2.07 2.07 0 01-.77-1.09h.42a2.46 2.46 0 00.6-.07 2.33 2.33 0 01-1.28-.77 2.08 2.08 0 01-.51-1.41 2 2 0 001 .28 2.07 2.07 0 01-1-1.83 2.11 2.11 0 01.32-1.12 6 6 0 004.57 2.32 1.85 1.85 0 01-.08-.47 2.22 2.22 0 012.21-2.21 2.08 2.08 0 011.62.7 4.15 4.15 0 001.41-.53 2.11 2.11 0 01-1 1.23 4.28 4.28 0 001.27-.35 4.83 4.83 0 01-1.05 1.16zm1.9-4.36A9 9 0 10342 201a8.65 8.65 0 00-2.64-6.36z" fill="#55acee" opacity=".75" style="isolation:isolate"/><path d="M120.88 203.34l5.12 5.12-1.55 1.54-5.11-5.12v-.82l-.29-.29a6.42 6.42 0 01-4.34 1.59 6.5 6.5 0 01-4.75-1.93 6.4 6.4 0 01-2-4.73 6.67 6.67 0 016.63-6.71h.07a6.4 6.4 0 014.73 2 6.5 6.5 0 011.93 4.75 6.42 6.42 0 01-1.59 4.34l.29.29h.82zm-6.18 0a4.63 4.63 0 10-3.28-1.35 4.49 4.49 0 003.28 1.35z" fill="#999"/><path d="M875.88 203.34l5.12 5.12-1.55 1.54-5.11-5.12v-.82l-.29-.29a6.42 6.42 0 01-4.34 1.59 6.5 6.5 0 01-4.75-1.93 6.4 6.4 0 01-2-4.73 6.67 6.67 0 016.63-6.71h.07a6.4 6.4 0 014.73 2 6.5 6.5 0 011.93 4.75 6.42 6.42 0 01-1.59 4.34l.29.29h.82zm-6.18 0a4.63 4.63 0 10-3.28-1.35 4.49 4.49 0 003.28 1.35z" fill="#fff"/><path d="M417.29 194.29v13.43h11.43v-2.29H421v-3.14h3.14v-2.57H421v-3.14h7.71v-2.29zm12.85-2.29h-14.28a.88.88 0 00-.86.86v16.28a.88.88 0 00.86.86h14.29a.88.88 0 00.86-.86v-16.28a.88.88 0 00-.86-.86zm-.57 4.6a.76.76 0 01-.68.83h-7v1.43h2.37a.82.82 0 01.77.87v2.59a.76.76 0 01-.68.83h-2.47v1.43h6.94a.82.82 0 01.77.87v2.31a.76.76 0 01-.68.83h-11.52a.91.91 0 01-.94-.83v-13.44a1 1 0 01.94-.89h11.41a.82.82 0 01.77.87v2.3z" fill="#9f224e"/><path fill="#fff" d="M539.01 199.89v2.21h-13.7l6.27 6.31L530 210l-9.01-9 9.01-9 1.63 1.58-6.32 6.31h13.7z"/><path fill="#fff" d="M538.99 199.89v2.21h13.7l-6.27 6.31L548 210l9.01-9-9.01-9-1.63 1.58 6.32 6.31h-13.7z"/><path fill="#fff" d="M567.11 210.01h-2.21v-13.7l-6.31 6.27L557 201l9-9.01 9 9.01-1.58 1.63-6.31-6.32v13.7zm18-18.02h-2.21v13.7l-6.31-6.27L575 201l9 9.01 9-9.01-1.58-1.63-6.31 6.32v-13.7zm-64.1 16.22l-1.8 1.8-7.21-7.21-7.21 7.21-1.8-1.8 7.21-7.21-7.21-7.21 1.8-1.8 7.21 7.21 7.21-7.21 1.8 1.8-7.21 7.21 7.21 7.21zm-27.21-15.49a7.78 7.78 0 00-2.49.41 7 7 0 00-2.14 1.19 5.82 5.82 0 00-1.51 1.87 5.42 5.42 0 00-.57 2.5 6.56 6.56 0 00.43 2.19 2.29 2.29 0 001.34 1.52h.2a.56.56 0 00.4-.54 4.27 4.27 0 00.15-.71 1.5 1.5 0 00-.38-.74 2.44 2.44 0 01-.38-1.51 4.49 4.49 0 01.36-1.85 4.28 4.28 0 011-1.45 4.23 4.23 0 011.5-.92 4.84 4.84 0 011.85-.28 4.43 4.43 0 011.53.26 3.61 3.61 0 011.22.73 3.22 3.22 0 01.8 1.16 4.06 4.06 0 01.29 1.58 10.87 10.87 0 01-.14 1.5 6.86 6.86 0 01-.48 1.66 3.91 3.91 0 01-.92 1.35 2 2 0 01-1.43.55 1.59 1.59 0 01-1.1-.4 1.37 1.37 0 01-.45-1.08 4.28 4.28 0 01.45-1.86 4.61 4.61 0 00.45-2 1.54 1.54 0 00-.38-1 1.18 1.18 0 00-.94-.43 1.46 1.46 0 00-1.29.74 2.8 2.8 0 00-.47 1.51v.88a1.6 1.6 0 00.3.81l-.39 1.6c-.15.6-.29 1.21-.43 1.84s-.26 1.24-.35 1.85a11.65 11.65 0 00-.15 1.67v1a5.55 5.55 0 00.09 1l.12.12h.1a9.15 9.15 0 001.48-2.57c.17-.59.44-1.65.81-3.17a2.28 2.28 0 001 .92 2.89 2.89 0 001.32.32 4.2 4.2 0 002.27-.6 4.94 4.94 0 001.57-1.55 6.83 6.83 0 00.91-2.13 10 10 0 00.29-2.37 5.25 5.25 0 00-1.8-4 5.88 5.88 0 00-1.84-1.19 6.45 6.45 0 00-2.22-.39zm-17.29 3h2.64v-3.37h-2.64a3.57 3.57 0 00-.8.09 2.7 2.7 0 00-.72.26 3.39 3.39 0 00-.65.41 3.54 3.54 0 00-.57.59 2.91 2.91 0 00-.52.69c-.13.25-.25.51-.36.77a2.92 2.92 0 00-.25.81 5.14 5.14 0 00-.08.88v1.69h-2.64v3.38h2.64V210h3.29v-8.21h3.29v-3.37h-3.29v-1.69a.8.8 0 01.07-.34 1.87 1.87 0 01.15-.32.49.49 0 01.21-.26.43.43 0 01.22-.09z"/><path d="M458.9 193a7.94 7.94 0 00-2.56.42 7.22 7.22 0 00-2.21 1.21 6 6 0 00-1.55 1.91 5.4 5.4 0 00-.58 2.56 6.55 6.55 0 00.44 2.23 2.4 2.4 0 001.38 1.55h.18a.57.57 0 00.42-.55 3.06 3.06 0 00.15-.73 1.55 1.55 0 00-.39-.75 2.54 2.54 0 01-.39-1.54 4.64 4.64 0 01.37-1.88 4.4 4.4 0 011-1.48 4.74 4.74 0 011.55-.94 5 5 0 011.91-.29 4.66 4.66 0 011.57.26 3.6 3.6 0 011.25.74 3.37 3.37 0 01.83 1.18 4.09 4.09 0 01.3 1.62 9.89 9.89 0 01-.14 1.53 6.65 6.65 0 01-.5 1.7 4.07 4.07 0 01-.95 1.37 2 2 0 01-1.47.57 1.67 1.67 0 01-1.13-.4 1.39 1.39 0 01-.46-1.1 4.47 4.47 0 01.46-1.9 4.61 4.61 0 00.46-2 1.48 1.48 0 00-.39-1 1.28 1.28 0 00-1-.44 1.5 1.5 0 00-1.33.75 2.81 2.81 0 00-.49 1.54v.9a1.62 1.62 0 00.31.82l-.41 1.63c-.15.61-.3 1.24-.44 1.88s-.26 1.27-.36 1.89a9.68 9.68 0 00-.15 1.7v1a6.64 6.64 0 00.1 1l.12.13h.2a9.63 9.63 0 001.53-2.63q.25-.92.84-3.24a2.33 2.33 0 001 .94 2.94 2.94 0 001.36.33 4.38 4.38 0 002.34-.61 5.2 5.2 0 001.62-1.58 7 7 0 00.94-2.18 9.82 9.82 0 00.3-2.41 5.31 5.31 0 00-1.85-4.11 6.19 6.19 0 00-2-1.13 6.9 6.9 0 00-2.29-.4zm-17.48 2.43H444V192h-2.57a3.48 3.48 0 00-.79.09 3 3 0 00-.7.27 2.72 2.72 0 00-.64.42 3.47 3.47 0 00-.55.6 2.88 2.88 0 00-.5.7 7.91 7.91 0 00-.35.79 3 3 0 00-.24.82 5.47 5.47 0 00-.08.9v1.72H435v3.44h2.57V210h3.21v-8.37H444v-3.44h-3.21v-1.72a1 1 0 01.07-.35c0-.11.1-.22.15-.33a.6.6 0 01.2-.27.43.43 0 01.22-.09zm154.44 3a1.14 1.14 0 111.14-1.14 1.15 1.15 0 01-.34.8 1.06 1.06 0 01-.8.34zm10.34 3.19l-6.38-6.37a3.16 3.16 0 00-2-.81h-3.71a1.15 1.15 0 00-1.14 1.14v3.71a2.87 2.87 0 00.24 1 2.68 2.68 0 00.58.9l6.38 6.39a1.06 1.06 0 00.8.33 1.18 1.18 0 00.81-.33l4.38-4.39a1.06 1.06 0 00.33-.8 1.18 1.18 0 00-.33-.81zm3.43 0l-6.38-6.37a3.16 3.16 0 00-2-.81h-2a3.16 3.16 0 012 .81l6.38 6.38a1.18 1.18 0 01.33.81 1.06 1.06 0 01-.33.8l-4.2 4.2a2.55 2.55 0 00.47.4 1 1 0 00.53.13 1.18 1.18 0 00.81-.33l4.38-4.39a1.06 1.06 0 00.33-.8 1.18 1.18 0 00-.33-.81z" fill="#999"/><path fill="#ccc" d="M3.01 126.95l1.2-.95 9.78 8-9.78 8-1.2-.95 8.58-7.05-8.58-7.05zm26.98 0l-1.2-.95-9.78 8 9.78 8 1.2-.95-8.58-7.05 8.58-7.05zm17.06 12.04l.95-1.2-8-9.78-8 9.78.95 1.2 7.05-8.58 7.05 8.58zm16-10.98l.95 1.2-8 9.78-8-9.78.95-1.2 7.05 8.58 7.05-8.58zM91.38 126a.59.59 0 01.63.51v15a.41.41 0 01-.11.35.42.42 0 01-.34.12.48.48 0 01-.37-.17l-3.34-3.47a.46.46 0 00-.33-.13.39.39 0 00-.29.13l-3.43 3.51a.46.46 0 01-.33.13.42.42 0 01-.45-.36.21.21 0 010-.11v-14.83a.57.57 0 01.45-.67.49.49 0 01.17 0h7.74zM64 126v10.55h2.64V142l6.08-5.46H80V126H64z"/><path d="M107.38 126a.59.59 0 01.63.51v15a.41.41 0 01-.11.35.42.42 0 01-.34.12.48.48 0 01-.37-.17l-3.34-3.47a.46.46 0 00-.33-.13.39.39 0 00-.29.13l-3.43 3.51a.46.46 0 01-.33.13.42.42 0 01-.45-.36.21.21 0 010-.11v-14.83a.57.57 0 01.45-.67.49.49 0 01.17 0h7.74z" fill="#004f8b"/><path d="M125.14 130.07a2.29 2.29 0 00.33-.79.9.9 0 01-.49.3l-1 .3a1.76 1.76 0 00-.38-.39 1.4 1.4 0 00-.44-.22l-.41-.09a1.48 1.48 0 00-.42 0h-.39a2.15 2.15 0 00-.5.12c-.23.12-.43.23-.62.35a1.53 1.53 0 00-.44.4 4.48 4.48 0 00-.28.47 1.85 1.85 0 00-.16.52 2.08 2.08 0 00-.07.5v.62a9.2 9.2 0 01-1.17-.08 2.9 2.9 0 01-1-.3l-.85-.46c-.26-.15-.51-.3-.73-.45a3.38 3.38 0 01-.64-.55l-.64-.73a6.34 6.34 0 00-.26.73 1.3 1.3 0 000 .62 2 2 0 00.08.59 1.83 1.83 0 00.14.47 2.83 2.83 0 00.32.45l.43.46a1.41 1.41 0 01-.41-.07c-.22-.07-.43-.15-.64-.24a3 3 0 00.07.66 1.52 1.52 0 00.23.54l.33.44a2.61 2.61 0 00.27.31 2 2 0 00.43.33 4.53 4.53 0 00.54.27h-1a4.16 4.16 0 00.24.47 1.64 1.64 0 00.29.35 2.92 2.92 0 00.38.32 1.41 1.41 0 00.38.21 3.66 3.66 0 00.46.18 4.37 4.37 0 00.52.12 5.75 5.75 0 01-.64.46 3.07 3.07 0 01-.64.29l-.59.22a1.4 1.4 0 00-.3.15 3.43 3.43 0 01-.56.07h-.56a5.64 5.64 0 00.63.46 4.51 4.51 0 00.63.29q.3.1.6.18l.6.12a3.43 3.43 0 00.56.07h1.08a2.32 2.32 0 00.46-.07c.33-.07.67-.15 1-.24a3.61 3.61 0 00.89-.36l.73-.41a5.11 5.11 0 00.62-.41 6.66 6.66 0 00.56-.5c.19-.19.38-.4.56-.62a7.85 7.85 0 00.61-1 6.35 6.35 0 00.44-.91c.07-.31.14-.59.21-.85s.12-.5.16-.73a4.64 4.64 0 00.07-.64v-.49a.62.62 0 010-.33.14.14 0 01.1-.11 2.5 2.5 0 00.39-.34c.19-.19.43-.45.74-.79a1.9 1.9 0 01-.57.18l-.79.12a2.18 2.18 0 00.51-.54zm12 5.69a4.32 4.32 0 00-.72-.76l-.72-.56a.74.74 0 01-.33-.59 1.24 1.24 0 01.79-1 1.77 1.77 0 00.79-1.72 2.08 2.08 0 00-.26-1.12 3.51 3.51 0 00-.71-.83h.9l.9-.68H135a4.7 4.7 0 00-1.44.22 3.63 3.63 0 00-1.27.68 3.26 3.26 0 00-.64.88 2.3 2.3 0 00-.25 1.06 2.21 2.21 0 001.42 2.08 2.52 2.52 0 00.9.17h.46a1.71 1.71 0 01-.09.3.71.71 0 000 .29.86.86 0 00.16.51 1.49 1.49 0 00.44.39 10.4 10.4 0 00-1.41.17 3.19 3.19 0 00-2.11 1.3 1.77 1.77 0 00-.31 1 2 2 0 00.06.49 1.12 1.12 0 00.18.42 1.89 1.89 0 001.21 1 5.39 5.39 0 001.55.23 5.55 5.55 0 001-.08 4.37 4.37 0 00.94-.26 3.27 3.27 0 00.83-.48 2.56 2.56 0 00.63-.76 2.66 2.66 0 00.21-.53 2 2 0 00.09-.59 1.92 1.92 0 00-.39-1.18zm-1.3 2.94a3.14 3.14 0 01-1.44.33 3.85 3.85 0 01-.83-.1 2.91 2.91 0 01-.8-.32 1.92 1.92 0 01-.61-.56 1.41 1.41 0 01-.24-.82 1.33 1.33 0 01.26-.84 1.82 1.82 0 01.67-.53 3 3 0 01.88-.28 5.47 5.47 0 01.9-.08h.37c.35.26.68.54 1 .83a1.39 1.39 0 01.53 1.12 1.26 1.26 0 01-.66 1.24zm-.9-5.61a1.44 1.44 0 01-.54.1 1.25 1.25 0 01-.79-.26 2 2 0 01-.56-.64 3.37 3.37 0 01-.45-1.64 2.33 2.33 0 01.08-.59 1.13 1.13 0 01.3-.53 1.51 1.51 0 01.43-.32 1.14 1.14 0 01.54-.14 1.2 1.2 0 01.79.29 2.37 2.37 0 01.56.7 3.83 3.83 0 01.45 1.72 2 2 0 01-.08.55 1.12 1.12 0 01-.3.49 1.37 1.37 0 01-.44.28zm4.93.1v-1.42h-.68v1.42h-1.42v.75h1.42v1.5h.67v-1.5h1.42v-.75zm12.83-2.46h1.65v-2.06h-1.65a2.94 2.94 0 00-.51.05 1.72 1.72 0 00-.45.16 2.14 2.14 0 00-.41.25 2.38 2.38 0 00-.35.36 1.87 1.87 0 00-.32.42 4.09 4.09 0 00-.23.47 1.66 1.66 0 00-.16.49 2.44 2.44 0 000 .54v1h-1.65v2.06h1.65v5h2.06v-5h2.06v-2.06h-2.06v-1a.74.74 0 010-.21l.1-.2a.29.29 0 01.13-.16.24.24 0 01.14-.05z" fill="#fff"/><path d="M174.82 133.68l-12.16-7.62a.47.47 0 00-.43 0 .38.38 0 00-.22.34v15.24a.38.38 0 00.22.34.67.67 0 00.2 0 .4.4 0 00.24-.07l12.16-7.62a.36.36 0 00.14-.49.32.32 0 00-.14-.14zM186 126h4v16h-4zm-8 0h4v16h-4z" fill="#333"/><path d="M207.11 131.82c-2 1.33-3.44 2.36-4.45 3.08l-.83.59a5.55 5.55 0 01-.84.43 2.69 2.69 0 01-1 .22 2.69 2.69 0 01-1-.22 5.55 5.55 0 01-.84-.43l-.83-.59c-.8-.59-2.28-1.61-4.44-3.08a4.76 4.76 0 01-.9-.78v7.09a1.43 1.43 0 001.43 1.43h13.14a1.43 1.43 0 001.43-1.43V131a5.19 5.19 0 01-.87.82zm.47-4.41a1.38 1.38 0 00-1-.42h-13.15a1.27 1.27 0 00-1.06.46 1.74 1.74 0 00-.37 1.16 2.09 2.09 0 00.49 1.22 4.74 4.74 0 001 1l1.83 1.27 2.34 1.63.38.27.48.34.46.29a2.38 2.38 0 00.51.24 1.38 1.38 0 00.45.08 1.38 1.38 0 00.45-.08 2.38 2.38 0 00.51-.24l.46-.29.48-.34.38-.27 4.18-2.9a4.22 4.22 0 001.09-1.1 2.34 2.34 0 00.44-1.35 1.38 1.38 0 00-.35-.97z" fill="#ccc"/><path d="M304 139h-1.5l-1.5-1.45v-1.45l1.5-1.45h1.5zm-16-3.27a1.58 1.58 0 01.58-1.23 2 2 0 011.33-.51h8.39a2 2 0 011.33.51 1.58 1.58 0 01.58 1.23v3.58a1.6 1.6 0 01-.54 1.23 1.92 1.92 0 01-1.37.51h-8.39a2 2 0 01-1.33-.51 1.58 1.58 0 01-.58-1.23v-3.58zm6.91-4.54a2 2 0 01.66-1.5 2.46 2.46 0 013.27 0 2 2 0 01.18 2.82c-.06.07-.12.12-.18.18a2.46 2.46 0 01-3.27 0 2 2 0 01-.66-1.49zm-6.11 0a2 2 0 01.66-1.5 2.45 2.45 0 013.28 0 2 2 0 01.18 2.82c-.06.07-.12.12-.18.18a2.45 2.45 0 01-3.28 0 2 2 0 01-.66-1.49zm30.8-.4h-15.34a.32.32 0 00-.16.09.24.24 0 00-.09.15v9.76a.24.24 0 00.09.15.35.35 0 00.16.08h15.48a.35.35 0 00.16-.08.25.25 0 00.1-.15V131a.24.24 0 00-.09-.15.35.35 0 00-.16-.08h-.14zM309.12 129H306a.3.3 0 00-.16.05h-.14a.21.21 0 00-.1.14.38.38 0 000 .15v1h3.8v-1.28a.38.38 0 00-.15-.09h-.15zm2.88 11a4.91 4.91 0 01-.86-.08 5.28 5.28 0 01-.78-.21 3.72 3.72 0 01-.71-.38 6.32 6.32 0 01-.64-.52 5 5 0 01-.54-.6 2.68 2.68 0 01-.38-.68 3.34 3.34 0 01-.23-.76 4.54 4.54 0 01-.07-.82 3.06 3.06 0 01.09-.74 2.53 2.53 0 01.31-.74 3.48 3.48 0 01.38-.68l.44-.62a6.32 6.32 0 01.64-.52 3.16 3.16 0 01.71-.36 4.1 4.1 0 01.78-.22 4.91 4.91 0 01.86-.07 6.11 6.11 0 01.86.06l.78.12a3.72 3.72 0 01.71.38 6.32 6.32 0 01.64.52 5 5 0 01.54.6 2.68 2.68 0 01.38.68 3.83 3.83 0 01.23.75 4.57 4.57 0 010 1.65 3.34 3.34 0 01-.23.76 2.68 2.68 0 01-.38.68 5 5 0 01-.54.6 6.32 6.32 0 01-.64.52 3.72 3.72 0 01-.71.38 5.28 5.28 0 01-.78.21 4.19 4.19 0 01-.86.15zm0-6.61a2.57 2.57 0 00-.55.06l-.47.14-.45.31a1.34 1.34 0 00-.37.38 1.44 1.44 0 00-.39.35 2.22 2.22 0 00-.23.43l-.13.45a2.33 2.33 0 00-.06.53 2 2 0 00.06.49 1.37 1.37 0 00.13.49l.31.43a1.73 1.73 0 00.31.35 1.22 1.22 0 00.37.38 1.88 1.88 0 00.45.22l.47.12a2.57 2.57 0 00.55.06 2.22 2.22 0 00.51-.06l.51-.12.45-.32a1.34 1.34 0 00.37-.38 1.67 1.67 0 00.39-.36 1.72 1.72 0 00.23-.42l.13-.46a2.24 2.24 0 00.06-.52 2.07 2.07 0 00-.06-.5 3.92 3.92 0 00-.13-.49l-.31-.44a2.67 2.67 0 00-.31-.36 1.27 1.27 0 00-.37-.36 1.88 1.88 0 00-.45-.22l-.47-.14a1.69 1.69 0 00-.55 0z" fill="#666"/><path d="M1 63h12v8H1zm2 12v-4h4.67z" fill="#9f224e"/><path d="M75.86 63a6.19 6.19 0 013.26 3.26 6 6 0 010 4.71 6.19 6.19 0 01-3.26 3.26 6 6 0 01-4.71 0A6.2 6.2 0 0167.89 71a6 6 0 010-4.71A6.17 6.17 0 0171.15 63a6 6 0 014.71 0zm-.69 3.43a1.12 1.12 0 00-.37.89 1.22 1.22 0 00.34.85 1.14 1.14 0 00.88.37 1.2 1.2 0 00.86-.34 1.17 1.17 0 00.36-.88 1.19 1.19 0 00-.33-.86A1.12 1.12 0 0076 66a1.22 1.22 0 00-.84.38zm-5.11 0a1.12 1.12 0 00-.37.89 1.08 1.08 0 00.41.88 1.36 1.36 0 00.9.34 1.22 1.22 0 00.85-.34 1.14 1.14 0 00.37-.88 1.24 1.24 0 00-.34-.86A1.14 1.14 0 0071 66a1.34 1.34 0 00-1 .38zm5.21 5.9a4.28 4.28 0 001.29-.71 3.57 3.57 0 00.86-1 2.35 2.35 0 00.32-1.18H69.6a2.45 2.45 0 00.31 1.18 3.31 3.31 0 00.86 1 4.28 4.28 0 001.29.71 4.85 4.85 0 003.19 0zM28.16 63l-2.76 2.4a.2.2 0 01-.06.14l-.12.14-.14.13L25 66h-2.18a.5.5 0 00-.27.08.75.75 0 00-.26.27.45.45 0 00-.21.2.8.8 0 00-.07.34v3.2a.52.52 0 00.07.27 1.39 1.39 0 00.21.27.44.44 0 00.19.19.75.75 0 00.33.07H25a.2.2 0 00.09.13.2.2 0 01.09.13.16.16 0 00.06.13l.13.13 2.76 2.49a1.05 1.05 0 00.39.27.44.44 0 00.32 0 .43.43 0 00.2-.26 1.24 1.24 0 00.06-.47v-10A1.34 1.34 0 0029 63a.43.43 0 00-.2-.26.44.44 0 00-.32 0 1.05 1.05 0 00-.39.27zm2.67 2.84a.25.25 0 00-.16.14.33.33 0 000 .14.48.48 0 00-.07.2.21.21 0 00.07.15l.25.49a1.1 1.1 0 01.11.5 2.42 2.42 0 00.13.53 2.33 2.33 0 01.06.53 2.48 2.48 0 01-.06.54l-.12.53a2.08 2.08 0 01-.19.49c-.08.15-.17.32-.25.5V71a.2.2 0 00.06.14l.13.13H31a.33.33 0 00.14 0 .38.38 0 00.25-.13.09.09 0 00.06-.09 5.36 5.36 0 00.34-.62 2.8 2.8 0 00.2-.62q0-.3.12-.6a3.49 3.49 0 00.06-.65 2.88 2.88 0 00-.06-.59l-.11-.66a3.75 3.75 0 00-.2-.65 2.59 2.59 0 00-.34-.58l-.17-.08a.2.2 0 00-.14-.06H31a.33.33 0 00-.13.07zm2.31-.71A.15.15 0 0033 65a.42.42 0 01-.17-.1.38.38 0 00-.15 0 1.22 1.22 0 01-.33.45.2.2 0 00-.06.14v.18a.21.21 0 00.08.17 4.37 4.37 0 01.35.68c.09.23.19.48.28.75a2.17 2.17 0 01.13.76 4.87 4.87 0 01.06.76v.75a2.71 2.71 0 01-.16.75c-.09.27-.19.52-.28.75a4.37 4.37 0 01-.35.68.25.25 0 00-.08.18v.1a.2.2 0 00.06.14l.13.14h.16a.33.33 0 00.14 0H33a.31.31 0 01.11-.09.09.09 0 00.06-.09 3.49 3.49 0 00.43-.81c.1-.28.2-.57.29-.88a6.72 6.72 0 00.26-1.78 5.82 5.82 0 00-.07-.93 6.28 6.28 0 00-.19-.86 9.06 9.06 0 00-.29-.84 3.56 3.56 0 00-.43-.82zm1.34-2a.16.16 0 00-.08-.1h-.3a.26.26 0 00-.15.07l-.12.14a.2.2 0 00-.06.14v.17a.3.3 0 00.08.18 11.05 11.05 0 01.6 1.13 10.23 10.23 0 01.46 1.2 6 6 0 01.28 1.25 10.37 10.37 0 010 2.49 6 6 0 01-.28 1.25c-.13.4-.29.8-.46 1.19a8 8 0 01-.6 1.12.3.3 0 00-.08.18v.18a.16.16 0 00.06.13L34 74a.1.1 0 00.08.1h.1a.32.32 0 01.18-.1l.08-.1.08-.09a6.58 6.58 0 00.68-1.25 12.29 12.29 0 00.49-1.32 8.13 8.13 0 00.31-1.39c0-.42.07-.84.08-1.26a13.33 13.33 0 00-.08-1.41 7.69 7.69 0 00-.27-1.35 12.29 12.29 0 00-.49-1.32 8.6 8.6 0 00-.68-1.27zM52 72.08h-1.31l-1.31-1.31v-1.31l1.31-1.31H52v3.94zm-14-3a1.45 1.45 0 01.51-1.08 1.67 1.67 0 011.16-.46H47a1.67 1.67 0 011.16.46 1.44 1.44 0 01.51 1.11v3.24a1.5 1.5 0 01-.47 1.11 1.62 1.62 0 01-1.2.46h-7.33a1.67 1.67 0 01-1.16-.46 1.44 1.44 0 01-.51-1.11zM44 65a1.84 1.84 0 01.57-1.36 2.1 2.1 0 012.86 0 1.88 1.88 0 01.06 2.66l-.06.06a2.1 2.1 0 01-2.86 0A1.84 1.84 0 0144 65zm-5.3 0a1.79 1.79 0 01.58-1.36 2.09 2.09 0 012.87 0 1.88 1.88 0 01.06 2.66l-.06.06a2.09 2.09 0 01-2.87 0A1.84 1.84 0 0138.7 65zm26.95-.37H52.22a.29.29 0 00-.14.08.22.22 0 00-.08.13v8.92a.29.29 0 00.08.14.37.37 0 00.14.07h13.56a.37.37 0 00.14-.07.29.29 0 00.08-.14v-9a.29.29 0 00-.08-.14.37.37 0 00-.14-.07h-.13v.08zM56.49 63h-3a.22.22 0 00-.08.13v1h3.33v-1a.22.22 0 00-.13-.08h-.13zM59 73.09a3.81 3.81 0 01-.75-.07 5.31 5.31 0 01-.68-.2 2.87 2.87 0 01-.62-.34 4.22 4.22 0 01-.56-.47 4.13 4.13 0 01-.47-.55 2.46 2.46 0 01-.33-.62 3.22 3.22 0 01-.2-.69 4.52 4.52 0 01-.06-.74 3 3 0 01.08-.67 2.77 2.77 0 01.27-.67 3.55 3.55 0 01.32-.61l.39-.56a4.22 4.22 0 01.56-.47 2.46 2.46 0 01.62-.33 3.31 3.31 0 01.68-.2 3.81 3.81 0 01.75-.07 4.74 4.74 0 01.75.06l.68.11a2.87 2.87 0 01.62.34 4.22 4.22 0 01.56.47 4.13 4.13 0 01.47.55 2.46 2.46 0 01.33.62 3.22 3.22 0 01.2.69 4.87 4.87 0 01.06.76 4.52 4.52 0 01-.06.74 3.22 3.22 0 01-.2.69 2.46 2.46 0 01-.33.62 4.13 4.13 0 01-.47.55 4.22 4.22 0 01-.56.47 2.87 2.87 0 01-.62.34 5.31 5.31 0 01-.68.2 3.81 3.81 0 01-.75.07zm0-6a2 2 0 00-.48.06l-.41.13-.39.28a1.07 1.07 0 00-.32.35 1 1 0 00-.34.32 1.79 1.79 0 00-.2.39l-.11.41a2 2 0 00-.06.48 4.28 4.28 0 00.17.9l.27.39a2.08 2.08 0 00.27.32 1 1 0 00.32.34 1.79 1.79 0 00.39.2l.41.11a2 2 0 00.48.06 1.74 1.74 0 00.45-.06l.45-.11.39-.29a1.3 1.3 0 00.32-.34 1.37 1.37 0 00.39-.33 1.79 1.79 0 00.2-.39l.11-.42a2 2 0 00.06-.48 1.76 1.76 0 00-.06-.46 2.18 2.18 0 00-.11-.44l-.27-.4a2.16 2.16 0 00-.27-.33 1.12 1.12 0 00-.32-.33 1.79 1.79 0 00-.39-.2l-.41-.13a2 2 0 00-.49-.06z" fill="#999"/><path d="M82 71h-2v5h5v-2h-3zm-2-4h2v-3h3v-2h-5zm9-5v2h3v3h2v-5zm3 12h-3v2h5v-5h-2z" fill="#fff"/><path d="M109 74.17V68.3h2.54v5.87zm3.53-5.87a3.8 3.8 0 002-1.66 2 2 0 00.12-.84 3.72 3.72 0 00-.08-1c-.08-.3-.11-.77-.2-1.27a1 1 0 011-.49 1.41 1.41 0 011 .58 1.73 1.73 0 01.39 1.07 1.83 1.83 0 010 .66 1 1 0 00-.12.41 6.74 6.74 0 00-.08 1h3.7A2.27 2.27 0 01121 68a1.56 1.56 0 01-.17 1.06 1 1 0 00-.24.43.6.6 0 00.12.32.82.82 0 01.12.43 1 1 0 01-.24.72.6.6 0 00-.24.36.32.32 0 00.09.32.87.87 0 01-.21 1.19c-.24.13-.34.26-.3.38a.51.51 0 00.12.23.69.69 0 010 .35 1.73 1.73 0 01-.91 1.24h-4.84a2 2 0 01-.74-.83h-1.07v-5.9z" fill="#999"/><path d="M95 74.17h2.55V68.3H95zm3.2-5.87a3.79 3.79 0 002.29-1.66 2.39 2.39 0 00.14-.84v-1c0-.3-.06-.77-.12-1.27a1 1 0 011-.49 1.46 1.46 0 011 .55 1.66 1.66 0 01.39 1.11 1.85 1.85 0 01-.05.66 1 1 0 00-.12.41 6.74 6.74 0 00-.08 1h3.6A2.26 2.26 0 01107 68a1.4 1.4 0 01-.17 1 .79.79 0 00-.24.46.6.6 0 00.12.32.82.82 0 01.12.43 1 1 0 01-.22.72 1.36 1.36 0 00-.27.36.32.32 0 00.09.32.74.74 0 01.15.5.76.76 0 01-.33.69.36.36 0 00-.33.39.37.37 0 00.1.22.69.69 0 010 .35 1.72 1.72 0 01-.9 1.24h-4.84a2 2 0 01-.73-.83h-1.34V68.3z" fill="#9f224e"/><path d="M48 0h12v12H48zm9.72 5.62h-3.35V2.26h-.74v3.37h-3.37v.74h3.37v3.37h.74V6.37h3.37v-.74zM60 0h12v12H60zm9.72 5.62h-7.46v.74h7.47v-.73z" fill="#ccc"/><path fill="#666" d="M5.73 8.9h.54v-.53h.53v-.54h.53V7.3h.54v-.53h.53v-.54h.53V5.7h.54v-.53H10V4.1h-.53v.53h-.54v.54H8.4v.53h-.53v.53h-.54v.54H6.8v.53h-.53v.53h-.54V7.3H5.2v-.53h-.53v-.54h-.54V5.7H3.6v-.53h-.53v-.54h-.54V4.1H2v1.07h.53v.53h.54v.53h.53v.54h.53v.53h.54v.53h.53v.54h.53v.53zm12-4.9h.54v.55h.53v.56h.53v.56h.54v.55h.53v.56h.53v.55h.54v.56H22V9h-.53v-.56h-.54v-.55h-.53v-.56h-.53v-.55h-.54v-.56h-.53v-.55h-.53v-.56h-.54v.56h-.53v.55h-.53v.56h-.54v.55h-.53v.56h-.53v.55h-.54V9H14V7.89h.53v-.56h.54v-.55h.53v-.56h.53v-.55h.54v-.56h.53v-.56h.53V4zm9.37 1.73v.54h.53v.53h.54v.53h.53v.54h.53v.53h.54v.53h.53v.54h.53V10h1.07v-.53h-.53v-.54h-.54V8.4h-.53v-.53h-.53v-.54h-.54V6.8h-.53v-.53h-.53v-.54h.53V5.2h.53v-.53h.54v-.54h.53V3.6h.53v-.53h.54v-.54h.53V2h-1.07v.53h-.53v.54h-.53v.53h-.54v.53h-.53v.54h-.53v.53h-.54v.53h-.53zm17.9 0v.54h-.55v.53h-.56v.53h-.56v.54h-.55v.53h-.56v.53h-.55v.54h-.56V10H40v-.53h.56v-.54h.55V8.4h.56v-.53h.55v-.54h.56V6.8h.56v-.53h.55v-.54h-.56V5.2h-.55v-.53h-.56v-.54h-.55V3.6h-.56v-.53h-.55v-.54H40V2h1.11v.53h.56v.54h.55v.53h.56v.53h.56v.54h.55v.53h.56v.53H45z"/><path d="M63 350.47a15 15 0 11-4.06-10.74A15 15 0 0163 350.47zm-22.69 2.23a.47.47 0 00-.46.46.49.49 0 000 .17 8.52 8.52 0 008.08 5.5 8.67 8.67 0 008.15-5.54.46.46 0 00-.43-.63 39.59 39.59 0 01-15.34.04zm0 0a.47.47 0 00-.46.46.49.49 0 000 .17 8.52 8.52 0 008.08 5.5 8.67 8.67 0 008.15-5.54.46.46 0 00-.43-.63 39.59 39.59 0 01-15.34.04z" fill="#e5bd9e"/><path d="M57.69 344.68a2 2 0 00-2.55-.32 2 2 0 00-1.92-1.71 2.1 2.1 0 00-2.1 2.08v.27a15.82 15.82 0 001.21 4.22.81.81 0 001 .47 16 16 0 004-1.87 2.08 2.08 0 00.5-2.9zm-19.33 0a2 2 0 012.55-.32 2 2 0 011.92-1.71 2.1 2.1 0 012.1 2.08v.27a15.82 15.82 0 01-1.21 4.22.81.81 0 01-1 .47 16 16 0 01-4-1.87 2.08 2.08 0 01-.5-2.9z" fill="#ff586f"/><path d="M40.31 352.7a.47.47 0 00-.46.46.49.49 0 000 .17 8.52 8.52 0 008.08 5.5 8.67 8.67 0 008.15-5.54.46.46 0 00-.43-.63 39.59 39.59 0 01-15.34.04z" fill="#403108"/><path d="M48 358.83a8.35 8.35 0 01-5-1.53 7.28 7.28 0 015.1-1.69 7.4 7.4 0 015 1.61 8.41 8.41 0 01-5.1 1.61z" fill="#ff586f"/><path d="M95 350a15 15 0 11-15-15 15 15 0 0115 15z" fill="#d5ae91"/><path d="M73.7 350.31a1.56 1.56 0 01-1.56-1.56v-.62a1.56 1.56 0 013.12 0v.62a1.58 1.58 0 01-1.56 1.56zm12.82 0a1.57 1.57 0 01-1.52-1.57v-.62a1.56 1.56 0 013.12 0v.62a1.58 1.58 0 01-1.56 1.56zm-3.47 5.77a3.06 3.06 0 11-3-3.34 3.21 3.21 0 013 3.33z" fill="#403108"/><path d="M74 342a3 3 0 00-3 2.88v.12m15-3a3 3 0 013 3" fill="none" stroke="#403108"/><path d="M127 350a15 15 0 11-15-15 15 15 0 0115 15z" fill="#d5ae91"/><path d="M106 342a3 3 0 00-3 2.9v.1m15-3s3 .09 3 3" fill="none" stroke="#403108"/><path d="M105.7 349.19c-1 0-1.79.67-1.79-.32v-.72a1.79 1.79 0 013.58 0v.72c0 .98-.81.3-1.79.32zm12.66 0c-1 0-1.79.67-1.79-.32v-.72a1.79 1.79 0 013.58 0v.72c0 1-.81.3-1.79.32zm1 10a.44.44 0 00.44-.44.43.43 0 000-.16 8.12 8.12 0 00-7.68-5.23 8.22 8.22 0 00-7.75 5.27.43.43 0 000 .41.44.44 0 00.36.19 18.37 18.37 0 0114.61 0z" fill="#403108"/><path d="M159 350a15 15 0 11-15-15 15 15 0 0115 15z" fill="#ff6ca1"/><path d="M137 343l4 3m10-3l-4 3m-7 11s0-4 4-4 4 4 4 4" fill="none" stroke="#403108"/><path d="M139 350.31a1.56 1.56 0 01-1.56-1.56v-.62a1.57 1.57 0 013.13 0v.63a1.57 1.57 0 01-1.57 1.55zm10 0a1.58 1.58 0 01-1.56-1.56v-.62a1.56 1.56 0 013.12 0v.63a1.57 1.57 0 01-1.56 1.55z" fill="#403108"/><path d="M16 334a16 16 0 1016 16 16 16 0 00-16-16zm-2.26 23.54L6.2 350l3-3 4.52 4.52 9-9 3 3z" fill="#0cb2a5"/><path d="M176 360.15a1.4 1.4 0 01-1-2.42 1.47 1.47 0 012.06 0 1.44 1.44 0 010 2 1.38 1.38 0 01-1 .42zm5.07-3.91a.58.58 0 01-.41.17h-9.33a.58.58 0 01-.58-.58v-12.66a.58.58 0 01.58-.58h9.33a.58.58 0 01.58.58v12.66a.58.58 0 01-.17.41zm-3.62-15.36h-2.91a.29.29 0 010-.58h2.92a.29.29 0 010 .58zm4.85-2.19a2.24 2.24 0 00-1.64-.68h-9.33a2.24 2.24 0 00-1.64.68 2.17 2.17 0 00-.69 1.62v18.41a2.17 2.17 0 00.69 1.62 2.24 2.24 0 001.64.68h9.33a2.24 2.24 0 001.64-.68 2.17 2.17 0 00.69-1.62V340.3a2.17 2.17 0 00-.69-1.62zm25.7 11.38a1.22 1.22 0 00-.91.38 1.29 1.29 0 00-.37.93.43.43 0 01-.12.31.44.44 0 01-.62 0 .43.43 0 01-.12-.31 2.14 2.14 0 01.63-1.55 2 2 0 011.51-.64.39.39 0 01.31.12.47.47 0 010 .63.4.4 0 01-.31.13zm0-2.16a3.25 3.25 0 00-2.42 1 3.56 3.56 0 000 5 3.37 3.37 0 004.77.07l.07-.07a3.56 3.56 0 000-5 3.25 3.25 0 00-2.42-1zm-10.28 9.6h20.55v1.75h-20.54v-1.75zm10.28-.85a4.89 4.89 0 01-3.63-1.54 5.33 5.33 0 010-7.43 5.06 5.06 0 017.15-.12l.12.12a5.33 5.33 0 010 7.43 4.9 4.9 0 01-3.64 1.54zm-8.56-15.78h5.14v1.75h-5.14zm-1.71 2.63h8.62l.86-1.75h11.08v3.5h-20.56v-1.76zm21.76-3a1.62 1.62 0 00-1.21-.51h-20.55a1.62 1.62 0 00-1.21.51 1.71 1.71 0 00-.5 1.24v17.51a1.71 1.71 0 00.5 1.24 1.62 1.62 0 001.21.51h20.55a1.62 1.62 0 001.21-.51 1.71 1.71 0 00.5-1.24v-17.51a1.71 1.71 0 00-.5-1.24zm28.21 15.22a2.2 2.2 0 001.62-.68 2.23 2.23 0 00.67-1.64V343.2a2.23 2.23 0 00-.67-1.64 2.2 2.2 0 00-1.62-.68h-15.6a2.2 2.2 0 00-1.62.68 2.23 2.23 0 00-.67 1.64v10.21a2.23 2.23 0 00.67 1.64 2.2 2.2 0 001.62.68zm-15.93-12.86a.43.43 0 01.32-.14h15.61a.43.43 0 01.32.14.47.47 0 01.14.33v10.21a.47.47 0 01-.14.33.43.43 0 01-.32.14h-15.6a.43.43 0 01-.32-.14.47.47 0 01-.14-.33V343.2a.48.48 0 01.13-.32zm-3.35 13.79h-2.3v1.39a1.17 1.17 0 00.67 1 3.06 3.06 0 001.62.41h23A3.09 3.09 0 00253 359a1.16 1.16 0 00.68-1v-1.39h-25.26zm10.33 1.39a.23.23 0 110-.46H241a.23.23 0 010 .46zm61.12-8.05l1.35 2.42h-9A13.12 13.12 0 01292 350a11.72 11.72 0 013.15-8.11zm-7.31 3.61h11.58l-4.38 7.6a11.43 11.43 0 01-4.47-3 12 12 0 01-2.73-4.6zm8.32-5.41l-.06.11-4.38-7.6A11.43 11.43 0 01304 338a13 13 0 012.64.28zm5.17 5.41l1.12-1.91 4.38 7.6A11.68 11.68 0 01304 362a12.52 12.52 0 01-2.59-.28zm9.39-7.21h-11.58l4.38-7.6a11.62 11.62 0 014.47 3 12.06 12.06 0 012.73 4.64zm.28 1.18A11 11 0 01316 350a11.5 11.5 0 01-3.2 8.11l-5.68-9.91-.34-.62zm22 2.92h-3.38a.79.79 0 01-.59-.26.89.89 0 010-1.23.79.79 0 01.59-.26h3.38a.79.79 0 01.59.26.89.89 0 010 1.23.76.76 0 01-.62.27zm8.2-4.12a.79.79 0 00-.59-.26H326.7a.79.79 0 00-.6.26.86.86 0 00-.25.61v13.13a.86.86 0 00.25.61.79.79 0 00.6.26h18.6a.79.79 0 00.59-.26.86.86 0 00.25-.61V347a.86.86 0 00-.25-.61zm.84-6.13a.79.79 0 00-.59-.26h-20.31a.79.79 0 00-.59.26.86.86 0 00-.25.61v3.5a.9.9 0 00.25.62.79.79 0 00.59.26h20.28a.79.79 0 00.59-.26.9.9 0 00.25-.62v-3.5a.84.84 0 00-.25-.6zm-73.5 6.75a3 3 0 00-5.12 2.12.86.86 0 01-.95.76.85.85 0 01-.76-.76 4.72 4.72 0 019.43-.43 3.09 3.09 0 010 .43.86.86 0 01-1.72 0 2.92 2.92 0 00-.88-2.12zm3.38-3.33a7.88 7.88 0 011.65 2.46 7.56 7.56 0 01.61 3 5.91 5.91 0 01-.15 1.45 4.36 4.36 0 01-.5 1.25 10.71 10.71 0 01-.59.9c-.16.21-.4.49-.71.86l-.61.72c-.16.22-.31.44-.45.67a2.62 2.62 0 00-.36.86 4.78 4.78 0 00-.1 1 5.14 5.14 0 01-5.14 5.14.86.86 0 11-.19-1.71h.19a3.45 3.45 0 003.43-3.43 6.69 6.69 0 01.15-1.41 4.19 4.19 0 01.5-1.22c.23-.38.42-.68.58-.89s.39-.49.7-.84a11 11 0 00.8-1 4.25 4.25 0 00.5-1 4.15 4.15 0 00.24-1.39 6 6 0 00-12 0 .86.86 0 01-.95.76.85.85 0 01-.76-.76 7.56 7.56 0 01.61-3 7.72 7.72 0 0110.1-4.11 7.9 7.9 0 012.45 1.71zm-16.49 15.13a.54.54 0 000 .76l2.25 2.25a.54.54 0 00.76 0l7.76-7.76-3-3zm21-20.81a.59.59 0 00-.4.16l-2.75 2.79-1.22 1.22a9 9 0 012.61 3.46l1-1 .35-.33 3.12-3.12a.59.59 0 00.16-.4.55.55 0 00-.16-.39l-2.25-2.25a.53.53 0 00-.4-.13zM368 360.15a1.4 1.4 0 01-1-2.42 1.47 1.47 0 012.06 0 1.44 1.44 0 010 2 1.38 1.38 0 01-1 .42zm5.07-3.91a.58.58 0 01-.41.17h-9.33a.58.58 0 01-.58-.58v-12.66a.58.58 0 01.58-.58h9.33a.58.58 0 01.58.58v12.66a.58.58 0 01-.17.41zm-3.62-15.36h-2.92a.29.29 0 010-.58h2.92a.29.29 0 010 .58zm4.85-2.19a2.24 2.24 0 00-1.64-.68h-9.33a2.24 2.24 0 00-1.64.68 2.17 2.17 0 00-.69 1.62v18.41a2.17 2.17 0 00.69 1.62 2.24 2.24 0 001.64.68h9.33a2.24 2.24 0 001.64-.68 2.17 2.17 0 00.69-1.62V340.3a2.17 2.17 0 00-.69-1.62zm25.7 11.38a1.22 1.22 0 00-.91.38 1.29 1.29 0 00-.37.93.43.43 0 01-.12.31.44.44 0 01-.62 0 .43.43 0 01-.12-.31 2.14 2.14 0 01.63-1.55 2 2 0 011.51-.64.39.39 0 01.31.12.47.47 0 010 .63.4.4 0 01-.31.13zm0-2.16a3.25 3.25 0 00-2.42 1 3.56 3.56 0 000 5 3.37 3.37 0 004.77.07l.07-.07a3.56 3.56 0 000-5 3.25 3.25 0 00-2.42-1zm-10.28 9.6h20.55v1.75h-20.54v-1.75zm10.28-.85a4.89 4.89 0 01-3.63-1.54 5.33 5.33 0 010-7.43 5 5 0 017.07-.19l.08.08.12.11a5.33 5.33 0 010 7.43 4.9 4.9 0 01-3.64 1.54zm-8.56-15.78h5.14v1.75h-5.14zm-1.71 2.63h8.62l.86-1.75h11.08v3.5h-20.56v-1.76zm21.76-3a1.62 1.62 0 00-1.21-.51h-20.55a1.62 1.62 0 00-1.21.51 1.71 1.71 0 00-.5 1.24v17.51a1.71 1.71 0 00.5 1.24 1.62 1.62 0 001.21.51h20.55a1.62 1.62 0 001.21-.51 1.71 1.71 0 00.5-1.24v-17.51a1.71 1.71 0 00-.5-1.24zm28.21 15.22a2.2 2.2 0 001.62-.68 2.23 2.23 0 00.67-1.64V343.2a2.23 2.23 0 00-.67-1.64 2.2 2.2 0 00-1.62-.68h-15.6a2.2 2.2 0 00-1.62.68 2.23 2.23 0 00-.67 1.64v10.21a2.23 2.23 0 00.67 1.64 2.2 2.2 0 001.62.68zm-15.93-12.86a.43.43 0 01.32-.14h15.61a.43.43 0 01.32.14.47.47 0 01.14.33v10.21a.47.47 0 01-.14.33.43.43 0 01-.32.14h-15.6a.43.43 0 01-.32-.14.47.47 0 01-.14-.33V343.2a.48.48 0 01.13-.32zm-3.35 13.79h-2.3v1.39a1.17 1.17 0 00.67 1 3.06 3.06 0 001.62.41h23A3.09 3.09 0 00445 359a1.16 1.16 0 00.68-1v-1.39h-25.26zm10.33 1.39a.23.23 0 010-.46H433a.23.23 0 010 .46zm61.12-8.05l1.35 2.42h-9A13.12 13.12 0 01484 350a11.72 11.72 0 013.15-8.11zm-7.31 3.61h11.58l-4.38 7.6a11.43 11.43 0 01-4.47-3 12 12 0 01-2.73-4.6zm8.32-5.41l-.06.11-4.38-7.6A11.43 11.43 0 01496 338a13 13 0 012.64.28zm5.17 5.41l1.12-1.91 4.38 7.6A11.68 11.68 0 01496 362a12.52 12.52 0 01-2.59-.28zm9.39-7.21h-11.58l4.38-7.6a11.62 11.62 0 014.47 3 12.06 12.06 0 012.73 4.64zm.28 1.18A11 11 0 01508 350a11.5 11.5 0 01-3.2 8.11l-5.68-9.91-.34-.62zm22 2.92h-3.38a.79.79 0 01-.59-.26.89.89 0 010-1.23.79.79 0 01.59-.26h3.38a.79.79 0 01.59.26.89.89 0 010 1.23.76.76 0 01-.62.27zm8.2-4.12a.79.79 0 00-.59-.26H518.7a.79.79 0 00-.59.26.86.86 0 00-.25.61v13.13a.86.86 0 00.25.61.79.79 0 00.59.26h18.59a.79.79 0 00.59-.26.86.86 0 00.25-.61V347a.85.85 0 00-.24-.61zm.84-6.13a.79.79 0 00-.59-.26h-20.31a.79.79 0 00-.59.26.86.86 0 00-.25.61v3.5a.9.9 0 00.25.62.79.79 0 00.59.26h20.28a.79.79 0 00.59-.26.9.9 0 00.25-.62v-3.5a.84.84 0 00-.25-.6zm-73.5 6.75a3 3 0 00-5.12 2.12.86.86 0 01-.95.76.85.85 0 01-.76-.76 4.72 4.72 0 019.43-.43 3.09 3.09 0 010 .43.86.86 0 01-1.72 0 2.92 2.92 0 00-.88-2.12zm3.38-3.33a7.88 7.88 0 011.65 2.46 7.56 7.56 0 01.61 3 5.91 5.91 0 01-.15 1.45 4.36 4.36 0 01-.5 1.25 10.71 10.71 0 01-.59.9c-.16.21-.4.49-.71.86l-.61.72c-.16.22-.31.44-.45.67a2.71 2.71 0 00-.36.86 4.78 4.78 0 00-.1 1 5.14 5.14 0 01-5.14 5.14.86.86 0 11-.19-1.71h.19a3.45 3.45 0 003.43-3.43 6.69 6.69 0 01.15-1.41 4.19 4.19 0 01.5-1.22c.23-.38.42-.68.58-.89s.39-.49.7-.84a11 11 0 00.8-1 4.25 4.25 0 00.5-1 4.15 4.15 0 00.24-1.39 6 6 0 00-12 0 .86.86 0 01-.95.76.85.85 0 01-.76-.76 7.56 7.56 0 01.61-3 7.72 7.72 0 0110.1-4.11 7.9 7.9 0 012.45 1.71zm-16.49 15.13a.54.54 0 000 .76l2.25 2.25a.54.54 0 00.76 0l7.76-7.76-3-3zm21-20.81a.59.59 0 00-.4.16l-2.75 2.79-1.22 1.22a9 9 0 012.61 3.46l1-1 .35-.33 3.12-3.12a.59.59 0 00.16-.4.55.55 0 00-.16-.39l-2.25-2.25a.53.53 0 00-.4-.13z" fill="#999"/><path d="M39 443c-2.44-1.86-15-11-15-11s-6-5.25-6 1v27s.3 5.25 6 1c3.59-2.68 16-12 16-12s3.17-2.83-1-6zm-5.11 4.55s-6.35 4.34-7.92 5.54c-2.72 2.08-3-.46-3-.46v-12c0-2.88 2.47-1.38 2.47-1.38s7.27 5.07 8.41 6a1.32 1.32 0 01.52 1.79 1.3 1.3 0 01-.52.52z" fill="#911b3a"/><path d="M136 67.94l-3.84 3.24 1.15 4.82-4.31-2.57-4.35 2.57 1.15-4.82-3.8-3.24 5-.42 2-4.52 2 4.53zm-7 4.24l2.66 1.54-.72-2.93 2.33-2-3.05-.26-1.22-2.74-1.18 2.76-3 .26 2.3 2-.69 2.92z" fill="#999"/><path fill="#9f224e" d="M142.98 73.44L138.65 76l1.14-4.82-3.8-3.24 5.02-.42 1.97-4.52 1.97 4.53 5.05.42-3.84 3.24 1.15 4.81-4.33-2.56z"/><path d="M576 347l-8.77 7.23 2.63 10.77-9.86-5.74-9.93 5.74 2.63-10.74L544 347l11.47-.93L560 336l4.5 10.1zm-16 9.45l6.07 3.44-1.65-6.52 5.32-4.44-7-.57-2.74-6.14-2.7 6.16-7 .57 5.25 4.44-1.55 6.52z" fill="#999"/><path fill="#9f224e" d="M591.96 359.29l-9.89 5.72 2.62-10.74-8.7-7.23 11.47-.93 4.5-10.1 4.5 10.1 11.54.93-8.77 7.23 2.62 10.74-9.89-5.72z"/><path d="M211.09 131.68a2 2 0 00-1.45.64 2.33 2.33 0 00-.48.65 1.88 1.88 0 00-.15.81V138h2.82v2.82h8.36V138H223v-4.18a2.12 2.12 0 00-2.09-2.09h-9.82zm.74-3.44v2.82h8.36v-2.82zm7 11.07h-5.65v-3.44h5.65v3.45zm1.42-5.23a.63.63 0 01-.07-.3.57.57 0 01.07-.22l.15-.3.25-.15a.52.52 0 01.27-.07.73.73 0 01.29.07 1.14 1.14 0 01.23.15 1.82 1.82 0 00.15.27.43.43 0 01.07.25.63.63 0 01-.07.3 1.07 1.07 0 01-.15.22l-.27.15a.43.43 0 01-.25.07.63.63 0 01-.3-.07.67.67 0 01-.37-.37zm16.5 2.73a2.3 2.3 0 011.57.62 2 2 0 01.69 1.49 2 2 0 01-.64 1.47 2.17 2.17 0 01-3 0 2 2 0 01-.64-1.47.45.45 0 010-.23.37.37 0 000-.21l-5.87-3.24a1.93 1.93 0 01-.72.64 2.05 2.05 0 01-1 .24 2.15 2.15 0 01-1.53-.62 2 2 0 01-.18-2.82l.18-.18a2.15 2.15 0 011.53-.62 2.05 2.05 0 011 .24 1.93 1.93 0 01.72.64l5.79-3.07a.84.84 0 01-.08-.31v-.31a2 2 0 01.65-1.48 2.12 2.12 0 011.52-.63 2.19 2.19 0 011.52.58 1.86 1.86 0 01.65 1.44 2 2 0 01-.65 1.47 2.15 2.15 0 01-1.52.62 2 2 0 01-.87-.18 1.84 1.84 0 01-.66-.51l-6 3.07v.88l5.77 3.24a3.47 3.47 0 01.76-.56 1.92 1.92 0 011-.21z" fill="#666"/><path d="M253.76 131.09L252.7 130a.75.75 0 00-1.06 0l-5.12 5.13-2.3-2.3a.75.75 0 00-1.06 0l-1.06 1.06a.75.75 0 000 1.06l2.83 2.83 1.06 1.06a.75.75 0 001.06 0l1.06-1.06 5.66-5.66a.75.75 0 000-1.06z" fill="#090"/><path d="M268.85 137l-2.3-2.3 2.3-2.3a.75.75 0 000-1.06l-1.06-1.06a.75.75 0 00-1.06 0l-2.3 2.3-2.3-2.3a.75.75 0 00-1.06 0l-1.07 1.06a.75.75 0 000 1.06l2.3 2.3-2.3 2.3a.75.75 0 000 1.06l1.06 1.06a.75.75 0 001.06 0l2.3-2.3 2.3 2.3a.75.75 0 001.06 0l1.06-1.06a.75.75 0 000-1.06z" fill="#cc0001"/><path fill="#fff" d="M332 139.8l-1.2 1.2-4.8-4.8-4.8 4.8-1.2-1.2 4.8-4.8-4.8-4.8 1.2-1.2 4.8 4.8 4.8-4.8 1.2 1.2-4.8 4.8 4.8 4.8z"/><path fill="#ccc" d="M344 139.8l-1.2 1.2-4.8-4.8-4.8 4.8-1.2-1.2 4.8-4.8-4.8-4.8 1.2-1.2 4.8 4.8 4.8-4.8 1.2 1.2-4.8 4.8 4.8 4.8z"/><path d="M894.65 195.35L897 193v7h-7l3.24-3.24a6.06 6.06 0 00-1.93-1.31A5.73 5.73 0 00889 195a5.86 5.86 0 00-3 .8 6 6 0 106.52 10.08 5.7 5.7 0 002.16-2.88h2.07a7.67 7.67 0 01-1.56 3.09 8.2 8.2 0 01-2.69 2.13 8 8 0 11-.39-14.63 8.27 8.27 0 012.54 1.76z" fill="#666"/><path d="M174.14 63.55c-2.64-1.9-5.27 1.8-7.91.51v-.27a.62.62 0 00-.69-.54.64.64 0 00-.54.54v10.59a.62.62 0 00.69.54.64.64 0 00.54-.54v-4.49c2.51 1.22 5-2.06 7.52-.75a.35.35 0 00.37 0 .38.38 0 00.18-.32v-5a.37.37 0 00-.16-.3z" fill="#999"/><path d="M184.44 63.55c-2.64-1.9-5.27 1.8-7.91.51v-.27a.62.62 0 00-.69-.54.64.64 0 00-.54.54v10.59a.62.62 0 00.69.54.64.64 0 00.54-.54v-4.49c2.51 1.22 5-2.06 7.52-.75a.35.35 0 00.37 0 .38.38 0 00.18-.32v-5a.37.37 0 00-.16-.3z" fill="#9f224e"/><path d="M198.5 63H186v20l7.5-3.75L201 83V63zm-2 12.77l-3-1.52-2.92 1.53.56-3.26-2.38-2.3 3.28-.47 1.46-3 1.47 3 3.28.48-2.38 2.3z" fill="#fcc059"/></svg>