<svg width="150" height="28" fill="none" xmlns="http://www.w3.org/2000/svg"><path fill-rule="evenodd" clip-rule="evenodd" d="M78.314 19.453V8.349h9.772c.854 0 1.526.178 1.952.537.367.298.612.895.612 1.612v2.507c0 .717-.245 1.313-.612 1.612-.426.358-1.098.537-1.952.537H80.94v4.299h-2.626zm8.55-9.194H80.94v2.984h5.924c.488 0 .794-.058.978-.238.122-.12.244-.359.244-.657v-1.194c0-.299-.122-.538-.244-.656-.184-.18-.49-.24-.978-.24zm6.001 9.194V8.349h9.71c.917 0 1.587.178 2.013.537.368.298.613.895.613 1.612v2.626c0 .776-.245 1.314-.613 1.613-.426.357-1.096.537-2.013.537h-1.466l5.253 4.179h-3.787l-4.58-4.18H95.49v4.18h-2.624zm8.55-9.194h-5.926v3.104h5.926c.487 0 .794-.06.976-.178.122-.12.246-.36.246-.717v-1.314c0-.299-.124-.538-.246-.656-.182-.18-.489-.24-.976-.24zm6.901 9.194V8.349h11.662v1.91h-8.976v2.447h5.251v1.91h-5.251v2.747h9.098v2.09h-11.784zm24.191-9.134h-7.449v2.387h7.084c1.098 0 1.892.18 2.259.537.425.36.61 1.075.61 2.09v1.493c0 1.014-.185 1.73-.61 2.09-.367.358-1.161.537-2.259.537h-7.021c-1.101 0-1.831-.18-2.261-.538-.365-.359-.549-1.075-.549-2.088v-.3l2.322-.477v1.313h7.998v-2.507h-7.084c-1.098 0-1.83-.18-2.197-.597-.429-.36-.613-1.016-.613-2.03v-1.254c0-1.014.184-1.671.613-2.03.367-.418 1.099-.596 2.197-.596h6.472c1.099 0 1.832.178 2.199.537.425.358.608 1.015.608 1.91v.24l-2.319.536v-1.253zm15.049 0h-7.447v2.387h7.083c1.099 0 1.832.18 2.257.537.368.36.551 1.075.551 2.09v1.493c0 1.014-.183 1.73-.551 2.09-.425.358-1.158.537-2.257.537h-7.022c-1.099 0-1.891-.18-2.26-.538-.429-.359-.609-1.075-.609-2.088v-.3l2.322-.477v1.313h8.056v-2.507h-7.082c-1.098 0-1.833-.18-2.258-.597-.367-.36-.551-1.016-.551-2.03v-1.254c0-1.014.184-1.671.551-2.03.425-.418 1.16-.596 2.258-.596h6.472c1.039 0 1.77.178 2.198.537.427.358.612 1.015.612 1.91v.24l-2.323.536v-1.253zM61.11 19.453l5.373-5.672-5.496-5.432h3.542l3.604 3.76 3.479-3.76h2.991l-4.945 5.133 6.167 5.97h-3.603l-4.15-4.298-3.849 4.299H61.11zm-54.515 0L0 8.349h3.053l4.58 8.059 4.396-8.06h2.625L8.426 19.454H6.595zm10.131 0V8.349h1.77l7.999 6.566c.306.239.551.418.733.598.245.178.428.417.611.597-.061-.597-.123-1.075-.123-1.313V8.348h2.382v11.105h-1.83L19.9 12.587c-.182-.179-.366-.298-.489-.478a1.405 1.405 0 01-.425-.417c.06.358.06.656.06 1.014.062.3.062.537.062.777v5.97h-2.383z" fill="#828282"/><path fill-rule="evenodd" clip-rule="evenodd" d="M58.216 26.667c0 .736-.61 1.333-1.363 1.333H34.125c-.753 0-1.363-.597-1.363-1.333V1.333c0-.736.61-1.333 1.363-1.333h22.728c.753 0 1.363.597 1.363 1.333v25.334z" fill="#9F224E"/><path fill-rule="evenodd" clip-rule="evenodd" d="M40.944 10.713V12h6.363v4h-6.363v4.889H54.58v3.556H36.398V3.555H54.58v3.556H40.944v3.603zm1.363-2.268h12.405c.752 0 1.232-.551 1.232-1.287V3.602c0-.736-.48-1.38-1.232-1.38H36.53c-.753 0-1.496.644-1.496 1.38v20.89c0 .735.743 1.286 1.496 1.286h18.182c.752 0 1.232-.55 1.232-1.287v-3.555c0-.736-.48-1.38-1.232-1.38H42.307v-2.222h5.132c.753 0 1.232-.551 1.232-1.287v-4c0-.736-.48-1.38-1.232-1.38h-5.132V8.445z" fill="#fff"/></svg>